<svg xmlns="http://www.w3.org/2000/svg" width="420" height="290" viewBox="0 0 420 290" role="img" aria-label="FACEATTEND: Touchless attendance system: computer vision detects and identifies faces over webcam and logs every timestamp.">
<style>@keyframes blink{50%{opacity:0}}.blink{animation:blink 1s steps(1) infinite}@keyframes nudge{50%{transform:translateX(5px)}}.nudge{animation:nudge 1.4s ease-in-out infinite}@keyframes scan{0%,100%{transform:translateY(4px)}50%{transform:translateY(58px)}}.scan{animation:scan 2.4s ease-in-out infinite}@media (prefers-reduced-motion: reduce){*{animation:none!important}}</style>
<defs><clipPath id="c"><rect width="420" height="290" rx="18"/></clipPath></defs><g clip-path="url(#c)"><rect width="420" height="290" rx="0" fill="#66bcbe"/><rect y="242" width="420" height="48" fill="#0a0a0a"/></g><path d="M24.8 38V30.3H27.8Q28.6 30.3 29.1 30.6Q29.6 30.9 29.9 31.5Q30.2 32 30.2 32.5V32.8Q30.2 33.4 29.9 33.9Q29.6 34.4 29.1 34.8Q28.6 35.1 27.8 35.1H26.2V38ZM26.2 33.7H27.7Q28.1 33.7 28.4 33.4Q28.7 33.2 28.7 32.8V32.6Q28.7 32.2 28.4 31.9Q28.1 31.7 27.7 31.7H26.2ZM34 38V30.3H37Q37.8 30.3 38.3 30.6Q38.9 30.9 39.1 31.4Q39.4 31.8 39.4 32.4V32.7Q39.4 33.2 39.1 33.6Q38.9 34 38.4 34.2V34.4Q38.8 34.4 39 34.7Q39.2 35 39.2 35.3V38H37.8V35.7Q37.8 35.4 37.6 35.3Q37.5 35.1 37.2 35.1H35.5V38ZM35.5 33.7H36.9Q37.4 33.7 37.7 33.5Q38 33.2 38 32.8V32.6Q38 32.2 37.7 32Q37.4 31.7 36.9 31.7H35.5ZM45.8 38.2Q44.5 38.2 43.8 37.3Q43 36.5 43 35V33.3Q43 31.8 43.8 31Q44.5 30.1 45.8 30.1Q47.1 30.1 47.9 31Q48.7 31.8 48.7 33.3V35Q48.7 36.5 47.9 37.3Q47.1 38.2 45.8 38.2ZM45.8 36.8Q46.6 36.8 46.9 36.4Q47.2 35.9 47.2 35.1V33.2Q47.2 32.7 47.1 32.3Q46.9 31.9 46.6 31.7Q46.3 31.5 45.8 31.5Q45.3 31.5 45 31.7Q44.7 31.9 44.6 32.3Q44.4 32.7 44.4 33.2V35.1Q44.4 35.9 44.7 36.4Q45 36.8 45.8 36.8ZM55 38.2Q53.8 38.2 53.1 37.5Q52.4 36.9 52.4 35.7V35H53.8V35.7Q53.8 36.2 54.1 36.5Q54.4 36.8 54.9 36.8Q55.4 36.8 55.7 36.5Q55.9 36.2 55.9 35.7V31.7H55.1V30.3H58V31.7H57.4V35.7Q57.4 36.9 56.7 37.5Q56.1 38.2 55 38.2ZM61.8 38V30.3H66.7V31.7H63.3V33.4H66.6V34.8H63.3V36.6H66.8V38ZM73.5 38.2Q72.2 38.2 71.5 37.3Q70.7 36.5 70.7 35V33.3Q70.7 31.8 71.5 31Q72.2 30.1 73.5 30.1Q74.9 30.1 75.6 30.9Q76.4 31.7 76.4 33V33.2H74.9V33Q74.9 32.6 74.8 32.3Q74.7 31.9 74.4 31.7Q74.1 31.5 73.5 31.5Q73.1 31.5 72.8 31.7Q72.4 31.9 72.3 32.3Q72.1 32.7 72.1 33.2V35.1Q72.1 35.9 72.5 36.4Q72.8 36.8 73.5 36.8Q74.1 36.8 74.4 36.6Q74.7 36.4 74.8 36Q74.9 35.7 74.9 35.3V35.1H76.4V35.3Q76.4 36.7 75.6 37.4Q74.9 38.2 73.5 38.2ZM82 38V31.7H80V30.3H85.5V31.7H83.5V38ZM89.3 39.8V38.5H94.7V39.8ZM101.2 38.2Q99.9 38.2 99.1 37.3Q98.4 36.5 98.4 35V33.3Q98.4 31.8 99.1 31Q99.9 30.1 101.2 30.1Q102.5 30.1 103.3 31Q104.1 31.8 104.1 33.3V35Q104.1 36.5 103.3 37.3Q102.5 38.2 101.2 38.2ZM101.2 36.8Q102 36.8 102.3 36.4Q102.6 35.9 102.6 35.1V33.2Q102.6 32.7 102.5 32.3Q102.3 31.9 102 31.7Q101.7 31.5 101.2 31.5Q100.7 31.5 100.4 31.7Q100.1 31.9 100 32.3Q99.8 32.7 99.8 33.2V35.1Q99.8 35.9 100.1 36.4Q100.4 36.8 101.2 36.8ZM101.2 35.1Q100.8 35.1 100.6 34.8Q100.3 34.5 100.3 34.1Q100.3 33.8 100.6 33.5Q100.8 33.2 101.2 33.2Q101.6 33.2 101.9 33.5Q102.1 33.8 102.1 34.1Q102.1 34.5 101.9 34.8Q101.6 35.1 101.2 35.1ZM110.6 38.2Q109.7 38.2 109.1 37.8Q108.4 37.4 108.1 36.8Q107.7 36.2 107.7 35.5V35.1H109.2V35.5Q109.2 36 109.5 36.4Q109.9 36.8 110.5 36.8Q111.1 36.8 111.4 36.5Q111.8 36.2 111.8 35.7Q111.8 35.2 111.4 34.9Q111.1 34.7 110.6 34.7H109.7V32.4L111.6 31.9V31.7H107.8V30.3H112.8V32.7L110.8 33.3V33.5H111Q111.6 33.5 112.1 33.7Q112.6 34 112.9 34.4Q113.2 34.9 113.2 35.6V35.7Q113.2 36.4 112.9 37Q112.6 37.5 112 37.8Q111.4 38.2 110.6 38.2Z" fill="#0a0a0a"/><rect x="308.1" y="20" width="87.9" height="26" rx="13" fill="#0a0a0a"/><circle class="blink" cx="323.1" cy="33" r="4" fill="#66bcbe"/><path d="M335.9 36.9V29.2H338.9Q339.7 29.2 340.2 29.5Q340.8 29.8 341 30.3Q341.3 30.8 341.3 31.4V31.6Q341.3 32.2 341 32.7Q340.8 33.3 340.2 33.6Q339.7 33.9 338.9 33.9H337.4V36.9ZM337.4 32.6H338.8Q339.3 32.6 339.5 32.3Q339.8 32 339.8 31.6V31.5Q339.8 31.1 339.5 30.8Q339.3 30.5 338.8 30.5H337.4ZM346 36.9V34.1H345.7L343.4 29.2H345L346.6 32.8H346.8L348.4 29.2H350L347.8 34.1H347.4V36.9ZM354.2 36.9V30.5H352.2V29.2H357.7V30.5H355.7V36.9ZM360.5 36.9V29.2H361.9V32.3H364.4V29.2H365.9V36.9H364.4V33.7H361.9V36.9ZM371.4 37Q370.1 37 369.3 36.2Q368.6 35.4 368.6 33.9V32.1Q368.6 30.7 369.3 29.8Q370.1 29 371.4 29Q372.7 29 373.5 29.8Q374.2 30.7 374.2 32.1V33.9Q374.2 35.4 373.5 36.2Q372.7 37 371.4 37ZM371.4 35.7Q372.2 35.7 372.5 35.2Q372.8 34.7 372.8 33.9V32.1Q372.8 31.6 372.6 31.2Q372.5 30.8 372.2 30.5Q371.9 30.3 371.4 30.3Q370.9 30.3 370.6 30.5Q370.3 30.8 370.2 31.2Q370 31.6 370 32.1V33.9Q370 34.7 370.3 35.2Q370.6 35.7 371.4 35.7ZM376.9 36.9V29.2H379.8L380.7 36.1H380.9V29.2H382.3V36.9H379.5L378.6 29.9H378.4V36.9Z" fill="#66bcbe"/><path d="M25.8 102V62.5H41.6V70.2H33.7V76.5H41.2V84.1H33.7V102ZM43 102 46.8 62.5H60.3L64 102H56.5L56 95.6H51.2L50.7 102ZM51.8 89.3H55.4L53.6 69.2H53.3ZM75.6 102.4Q71.3 102.4 68.7 99.7Q66.1 97 66.1 92.2V74Q66.1 68.2 68.4 65.2Q70.7 62.1 75.8 62.1Q78.6 62.1 80.8 63.1Q83 64.2 84.3 66.2Q85.5 68.3 85.5 71.4V78.2H77.7V72.4Q77.7 70.6 77.2 70Q76.8 69.4 75.8 69.4Q74.7 69.4 74.3 70.2Q74 71 74 72.3V92.1Q74 93.7 74.4 94.4Q74.9 95.1 75.8 95.1Q76.8 95.1 77.2 94.3Q77.7 93.4 77.7 92.1V85H85.6V92.5Q85.6 97.7 83 100Q80.4 102.4 75.6 102.4ZM88.2 102V62.5H104.1V70.1H96.3V77.8H103.7V85.2H96.3V94.3H104.6V102ZM106.1 102 109.9 62.5H123.3L127.1 102H119.6L119 95.6H114.3L113.8 102ZM114.8 89.3H118.4L116.7 69.2H116.3ZM132.9 102V70.1H128.2V62.5H145.5V70.1H140.8V102ZM151.1 102V70.1H146.4V62.5H163.7V70.1H159V102ZM165.9 102V62.5H181.7V70.1H173.9V77.8H181.4V85.2H173.9V94.3H182.2V102ZM184.8 102V62.5H193L196.6 81.4V62.5H204.2V102H196.5L192.5 82.2V102ZM207.7 102V62.5H218.6Q222.9 62.5 225 64.8Q227.2 67.2 227.2 71.8V90.3Q227.2 95.9 225.2 98.9Q223.3 102 218.3 102ZM215.7 95H217.1Q219.2 95 219.2 92.9V72.5Q219.2 70.5 218.7 70Q218.2 69.4 216.6 69.4H215.7Z" fill="#0a0a0a"/><rect x="24" y="116" width="56" height="6" fill="#0a0a0a"/><path d="M27.4 148V139.9H24.8V138.9H31.2V139.9H28.5V148ZM35.9 148.2Q35.1 148.2 34.3 147.8Q33.6 147.4 33.2 146.7Q32.7 145.9 32.7 144.9V144.7Q32.7 143.6 33.2 142.9Q33.6 142.2 34.3 141.8Q35.1 141.4 35.9 141.4Q36.8 141.4 37.5 141.8Q38.3 142.2 38.7 142.9Q39.2 143.6 39.2 144.7V144.9Q39.2 145.9 38.7 146.7Q38.3 147.4 37.5 147.8Q36.8 148.2 35.9 148.2ZM35.9 147.2Q36.6 147.2 37.1 146.9Q37.5 146.6 37.8 146.1Q38.1 145.6 38.1 144.9V144.7Q38.1 144 37.8 143.5Q37.5 142.9 37 142.6Q36.5 142.3 35.9 142.3Q35.3 142.3 34.8 142.6Q34.3 142.9 34 143.5Q33.7 144 33.7 144.7V144.9Q33.7 145.6 34 146.1Q34.3 146.6 34.8 146.9Q35.3 147.2 35.9 147.2ZM43.4 148.2Q42.3 148.2 41.6 147.5Q41 146.8 41 145.4V141.6H42V145.3Q42 146.3 42.4 146.8Q42.8 147.2 43.7 147.2Q44.6 147.2 45.1 146.6Q45.6 146 45.6 144.9V141.6H46.7V148H45.6V146.8H45.5Q45.2 147.5 44.7 147.8Q44.2 148.2 43.4 148.2ZM52 148.2Q51.1 148.2 50.3 147.8Q49.6 147.4 49.1 146.7Q48.6 145.9 48.6 144.9V144.7Q48.6 143.7 49.1 142.9Q49.6 142.2 50.3 141.8Q51.1 141.4 52 141.4Q52.8 141.4 53.4 141.7Q54.1 142 54.5 142.6Q54.9 143.1 55 143.8L54 144.1Q53.9 143.6 53.7 143.2Q53.4 142.8 53 142.6Q52.6 142.3 51.9 142.3Q51.3 142.3 50.8 142.6Q50.3 142.9 50 143.5Q49.7 144 49.7 144.7V144.9Q49.7 145.6 50 146.1Q50.3 146.7 50.8 146.9Q51.3 147.2 52 147.2Q52.6 147.2 53 147Q53.5 146.7 53.7 146.3Q54 145.9 54 145.5L55 145.7Q54.9 146.4 54.5 147Q54.1 147.5 53.5 147.9Q52.8 148.2 52 148.2ZM57 148V138.9H58V142.7H58.1Q58.4 142.1 59 141.7Q59.5 141.4 60.3 141.4Q61.3 141.4 62 142.1Q62.6 142.8 62.6 144.2V148H61.6V144.4Q61.6 143.3 61.2 142.8Q60.7 142.3 59.9 142.3Q59 142.3 58.5 143Q58 143.6 58 144.6V148ZM64.9 148V147.1H67.3V139.8H65V138.9H68.3V147.1H70.6V148ZM75.7 148.2Q74.8 148.2 74.1 147.8Q73.4 147.3 73 146.6Q72.6 145.8 72.6 144.9V144.5Q72.6 143.6 73 142.9Q73.4 142.2 74.1 141.8Q74.9 141.4 75.8 141.4Q76.6 141.4 77.1 141.7Q77.7 141.9 78.1 142.4Q78.5 142.8 78.6 143.3Q78.8 143.8 78.8 144.3V145.1H73.6Q73.6 146 74.2 146.6Q74.8 147.2 75.8 147.2Q76.7 147.2 77.1 146.8Q77.6 146.4 77.8 145.9L78.7 146.2Q78.5 147.1 77.7 147.6Q77 148.2 75.7 148.2ZM73.6 144.2H77.8Q77.8 143.6 77.5 143.2Q77.2 142.8 76.7 142.6Q76.3 142.3 75.8 142.3Q74.9 142.3 74.3 142.9Q73.7 143.4 73.6 144.2ZM83.8 148.2Q82.8 148.2 82.1 147.8Q81.5 147.5 81.2 147Q80.9 146.4 80.8 145.8L81.8 145.6Q81.9 146.3 82.4 146.8Q82.9 147.2 83.7 147.2Q84.4 147.2 84.9 147Q85.3 146.7 85.3 146.2Q85.3 145.6 84.9 145.4Q84.5 145.2 83.5 145.1Q82.4 145 81.8 144.6Q81.2 144.1 81.2 143.3V143.2Q81.2 142.6 81.5 142.2Q81.9 141.8 82.4 141.6Q82.9 141.4 83.5 141.4Q84.4 141.4 84.9 141.7Q85.5 142 85.8 142.4Q86.1 142.9 86.2 143.4L85.2 143.6Q85.2 143 84.7 142.6Q84.3 142.3 83.6 142.3Q83 142.3 82.6 142.5Q82.2 142.7 82.2 143.2Q82.2 143.7 82.6 143.9Q83 144.2 84 144.3Q85.1 144.3 85.7 144.8Q86.3 145.2 86.3 146.1V146.2Q86.3 147.1 85.6 147.6Q84.9 148.2 83.8 148.2ZM91.7 148.2Q90.7 148.2 90.1 147.8Q89.5 147.5 89.1 147Q88.8 146.4 88.8 145.8L89.8 145.6Q89.8 146.3 90.3 146.8Q90.8 147.2 91.7 147.2Q92.4 147.2 92.8 147Q93.3 146.7 93.3 146.2Q93.3 145.6 92.8 145.4Q92.4 145.2 91.4 145.1Q90.3 145 89.7 144.6Q89.1 144.1 89.1 143.3V143.2Q89.1 142.6 89.5 142.2Q89.8 141.8 90.3 141.6Q90.9 141.4 91.5 141.4Q92.3 141.4 92.9 141.7Q93.5 142 93.8 142.4Q94.1 142.9 94.1 143.4L93.2 143.6Q93.1 143 92.7 142.6Q92.2 142.3 91.5 142.3Q91 142.3 90.5 142.5Q90.1 142.7 90.1 143.2Q90.1 143.7 90.5 143.9Q90.9 144.2 92 144.3Q93.1 144.3 93.7 144.8Q94.3 145.2 94.3 146.1V146.2Q94.3 147.1 93.6 147.6Q92.9 148.2 91.7 148.2ZM107.2 148.2Q106.3 148.2 105.7 147.8Q105 147.4 104.6 146.7Q104.2 145.9 104.2 144.9V144.7Q104.2 143.6 104.6 142.9Q105 142.1 105.7 141.8Q106.3 141.4 107.2 141.4Q107.8 141.4 108.4 141.7Q108.9 142 109.2 142.6H109.4V141.6H110.4V146.7Q110.4 147.1 110.7 147.1H111.1V148H110.4Q110 148 109.7 147.7Q109.4 147.5 109.4 146.9H109.2Q108.9 147.5 108.4 147.9Q107.8 148.2 107.2 148.2ZM107.3 147.2Q108.2 147.2 108.8 146.6Q109.4 145.9 109.4 144.9V144.7Q109.4 144 109.1 143.5Q108.8 142.9 108.4 142.6Q107.9 142.3 107.3 142.3Q106.7 142.3 106.2 142.6Q105.8 142.9 105.5 143.4Q105.2 144 105.2 144.7V144.9Q105.2 146 105.8 146.6Q106.4 147.2 107.3 147.2ZM115.5 148Q115 148 114.7 147.7Q114.5 147.4 114.5 147V142.5H112.4V141.6H114.5V138.9H115.5V141.6H118V142.5H115.5V146.7Q115.5 147.1 115.8 147.1H117.7V148ZM123.4 148Q123 148 122.7 147.7Q122.4 147.4 122.4 147V142.5H120.4V141.6H122.4V138.9H123.4V141.6H125.9V142.5H123.4V146.7Q123.4 147.1 123.8 147.1H125.6V148ZM131.4 148.2Q130.5 148.2 129.8 147.8Q129.1 147.3 128.7 146.6Q128.3 145.8 128.3 144.9V144.5Q128.3 143.6 128.7 142.9Q129.1 142.2 129.8 141.8Q130.6 141.4 131.5 141.4Q132.3 141.4 132.8 141.7Q133.4 141.9 133.8 142.4Q134.1 142.8 134.3 143.3Q134.5 143.8 134.5 144.3V145.1H129.3Q129.3 146 129.9 146.6Q130.5 147.2 131.5 147.2Q132.4 147.2 132.8 146.8Q133.3 146.4 133.5 145.9L134.4 146.2Q134.1 147.1 133.4 147.6Q132.7 148.2 131.4 148.2ZM129.3 144.2H133.5Q133.5 143.6 133.2 143.2Q132.9 142.8 132.4 142.6Q132 142.3 131.5 142.3Q130.6 142.3 130 142.9Q129.4 143.4 129.3 144.2ZM136.5 148V141.6H137.5V142.6H137.7Q138.3 141.4 139.8 141.4Q140.9 141.4 141.5 142.1Q142.2 142.8 142.2 144.2V148H141.2V144.4Q141.2 143.3 140.7 142.8Q140.3 142.3 139.5 142.3Q138.6 142.3 138.1 143Q137.5 143.6 137.5 144.6V148ZM147.2 148.2Q146.3 148.2 145.6 147.8Q144.9 147.4 144.5 146.7Q144.1 145.9 144.1 144.9V144.7Q144.1 143.6 144.5 142.9Q145 142.2 145.6 141.8Q146.3 141.4 147.2 141.4Q147.8 141.4 148.4 141.7Q149 142 149.3 142.6H149.5V138.9H150.5V148H149.5V147H149.3Q149 147.6 148.4 147.9Q147.8 148.2 147.2 148.2ZM147.3 147.2Q147.9 147.2 148.4 146.9Q148.9 146.6 149.2 146.1Q149.5 145.6 149.5 144.9V144.7Q149.5 144 149.2 143.5Q148.9 142.9 148.4 142.6Q147.9 142.3 147.3 142.3Q146.7 142.3 146.2 142.6Q145.7 142.9 145.4 143.4Q145.1 144 145.1 144.7V144.9Q145.1 145.6 145.4 146.1Q145.7 146.6 146.2 146.9Q146.7 147.2 147.3 147.2ZM154.9 148.2Q154.1 148.2 153.4 147.8Q152.7 147.4 152.3 146.7Q151.9 145.9 151.9 144.9V144.7Q151.9 143.6 152.3 142.9Q152.7 142.1 153.4 141.8Q154.1 141.4 154.9 141.4Q155.6 141.4 156.1 141.7Q156.6 142 157 142.6H157.1V141.6H158.1V146.7Q158.1 147.1 158.5 147.1H158.8V148H158.1Q157.7 148 157.4 147.7Q157.1 147.5 157.1 146.9H157Q156.6 147.5 156.1 147.9Q155.5 148.2 154.9 148.2ZM155 147.2Q155.9 147.2 156.5 146.6Q157.1 145.9 157.1 144.9V144.7Q157.1 144 156.8 143.5Q156.6 142.9 156.1 142.6Q155.6 142.3 155 142.3Q154.4 142.3 154 142.6Q153.5 142.9 153.2 143.4Q152.9 144 152.9 144.7V144.9Q152.9 146 153.5 146.6Q154.1 147.2 155 147.2ZM160.4 148V141.6H161.4V142.6H161.6Q162.2 141.4 163.6 141.4Q164.8 141.4 165.4 142.1Q166.1 142.8 166.1 144.2V148H165.1V144.4Q165.1 143.3 164.6 142.8Q164.2 142.3 163.4 142.3Q162.5 142.3 161.9 143Q161.4 143.6 161.4 144.6V148ZM171.3 148.2Q170.4 148.2 169.7 147.8Q168.9 147.4 168.4 146.7Q168 145.9 168 144.9V144.7Q168 143.7 168.4 142.9Q168.9 142.2 169.7 141.8Q170.4 141.4 171.3 141.4Q172.1 141.4 172.8 141.7Q173.4 142 173.8 142.6Q174.2 143.1 174.3 143.8L173.3 144.1Q173.3 143.6 173 143.2Q172.8 142.8 172.3 142.6Q171.9 142.3 171.3 142.3Q170.7 142.3 170.1 142.6Q169.6 142.9 169.3 143.5Q169 144 169 144.7V144.9Q169 145.6 169.3 146.1Q169.6 146.7 170.1 146.9Q170.7 147.2 171.3 147.2Q171.9 147.2 172.4 147Q172.8 146.7 173.1 146.3Q173.3 145.9 173.4 145.5L174.4 145.7Q174.2 146.4 173.8 147Q173.4 147.5 172.8 147.9Q172.1 148.2 171.3 148.2ZM179.2 148.2Q178.2 148.2 177.5 147.8Q176.8 147.3 176.4 146.6Q176 145.8 176 144.9V144.5Q176 143.6 176.4 142.9Q176.9 142.2 177.6 141.8Q178.3 141.4 179.2 141.4Q180 141.4 180.6 141.7Q181.1 141.9 181.5 142.4Q181.9 142.8 182.1 143.3Q182.2 143.8 182.2 144.3V145.1H177Q177.1 146 177.6 146.6Q178.2 147.2 179.2 147.2Q180.1 147.2 180.6 146.8Q181 146.4 181.2 145.9L182.2 146.2Q181.9 147.1 181.2 147.6Q180.4 148.2 179.2 148.2ZM177.1 144.2H181.2Q181.2 143.6 180.9 143.2Q180.6 142.8 180.2 142.6Q179.7 142.3 179.2 142.3Q178.3 142.3 177.8 142.9Q177.2 143.4 177.1 144.2ZM195.2 148.2Q194.2 148.2 193.5 147.8Q192.9 147.5 192.6 147Q192.3 146.4 192.2 145.8L193.2 145.6Q193.2 146.3 193.8 146.8Q194.3 147.2 195.1 147.2Q195.8 147.2 196.3 147Q196.7 146.7 196.7 146.2Q196.7 145.6 196.3 145.4Q195.8 145.2 194.9 145.1Q193.8 145 193.2 144.6Q192.6 144.1 192.6 143.3V143.2Q192.6 142.6 192.9 142.2Q193.2 141.8 193.8 141.6Q194.3 141.4 194.9 141.4Q195.8 141.4 196.3 141.7Q196.9 142 197.2 142.4Q197.5 142.9 197.5 143.4L196.6 143.6Q196.5 143 196.1 142.6Q195.7 142.3 194.9 142.3Q194.4 142.3 194 142.5Q193.5 142.7 193.5 143.2Q193.5 143.7 193.9 143.9Q194.3 144.2 195.4 144.3Q196.5 144.3 197.1 144.8Q197.7 145.2 197.7 146.1V146.2Q197.7 147.1 197 147.6Q196.3 148.2 195.2 148.2ZM201.2 150.6V149.7H204.5Q204.8 149.7 204.8 149.3V146.8H204.7Q204.4 147.5 203.9 147.8Q203.4 148.2 202.6 148.2Q201.5 148.2 200.8 147.5Q200.2 146.8 200.2 145.4V141.6H201.2V145.3Q201.2 146.3 201.6 146.8Q202 147.2 202.9 147.2Q203.8 147.2 204.3 146.6Q204.8 146 204.8 144.9V141.6H205.9V149.6Q205.9 150 205.6 150.3Q205.3 150.6 204.9 150.6ZM211.1 148.2Q210.1 148.2 209.4 147.8Q208.8 147.5 208.5 147Q208.2 146.4 208.1 145.8L209.1 145.6Q209.2 146.3 209.7 146.8Q210.2 147.2 211 147.2Q211.7 147.2 212.2 147Q212.6 146.7 212.6 146.2Q212.6 145.6 212.2 145.4Q211.7 145.2 210.8 145.1Q209.7 145 209.1 144.6Q208.5 144.1 208.5 143.3V143.2Q208.5 142.6 208.8 142.2Q209.1 141.8 209.7 141.6Q210.2 141.4 210.8 141.4Q211.7 141.4 212.2 141.7Q212.8 142 213.1 142.4Q213.4 142.9 213.5 143.4L212.5 143.6Q212.4 143 212 142.6Q211.6 142.3 210.9 142.3Q210.3 142.3 209.9 142.5Q209.5 142.7 209.5 143.2Q209.5 143.7 209.9 143.9Q210.3 144.2 211.3 144.3Q212.4 144.3 213 144.8Q213.6 145.2 213.6 146.1V146.2Q213.6 147.1 212.9 147.6Q212.2 148.2 211.1 148.2ZM218.9 148Q218.4 148 218.2 147.7Q217.9 147.4 217.9 147V142.5H215.9V141.6H217.9V138.9H218.9V141.6H221.4V142.5H218.9V146.7Q218.9 147.1 219.2 147.1H221.1V148ZM226.9 148.2Q226 148.2 225.3 147.8Q224.6 147.3 224.2 146.6Q223.8 145.8 223.8 144.9V144.5Q223.8 143.6 224.2 142.9Q224.6 142.2 225.3 141.8Q226 141.4 226.9 141.4Q227.7 141.4 228.3 141.7Q228.9 141.9 229.3 142.4Q229.6 142.8 229.8 143.3Q230 143.8 230 144.3V145.1H224.8Q224.8 146 225.4 146.6Q225.9 147.2 226.9 147.2Q227.9 147.2 228.3 146.8Q228.8 146.4 228.9 145.9L229.9 146.2Q229.6 147.1 228.9 147.6Q228.2 148.2 226.9 148.2ZM224.8 144.2H229Q228.9 143.6 228.6 143.2Q228.3 142.8 227.9 142.6Q227.4 142.3 226.9 142.3Q226.1 142.3 225.5 142.9Q224.9 143.4 224.8 144.2ZM231.5 148V141.6H232.5V142.3H232.6Q232.8 141.8 233.1 141.6Q233.5 141.4 233.9 141.4Q234.4 141.4 234.7 141.6Q235 141.9 235.1 142.3H235.3Q235.7 141.4 236.7 141.4Q237.4 141.4 237.8 141.8Q238.2 142.3 238.2 143V148H237.2V143.4Q237.2 142.9 237 142.6Q236.8 142.3 236.3 142.3Q235.9 142.3 235.6 142.7Q235.3 143 235.3 143.6V148H234.3V143.3Q234.3 142.9 234.1 142.6Q233.9 142.3 233.5 142.3Q233 142.3 232.7 142.7Q232.5 143 232.5 143.6V148ZM242.8 143.2Q242.4 143.2 242.2 142.9Q241.9 142.6 241.9 142.3Q241.9 141.9 242.2 141.6Q242.4 141.4 242.8 141.4Q243.2 141.4 243.4 141.6Q243.7 141.9 243.7 142.3Q243.7 142.6 243.4 142.9Q243.2 143.2 242.8 143.2ZM242.8 148.2Q242.4 148.2 242.2 147.9Q241.9 147.6 241.9 147.3Q241.9 146.9 242.2 146.6Q242.4 146.4 242.8 146.4Q243.2 146.4 243.4 146.6Q243.7 146.9 243.7 147.3Q243.7 147.6 243.4 147.9Q243.2 148.2 242.8 148.2ZM258.8 148.2Q257.9 148.2 257.2 147.8Q256.4 147.4 256 146.7Q255.5 145.9 255.5 144.9V144.7Q255.5 143.7 256 142.9Q256.4 142.2 257.2 141.8Q257.9 141.4 258.8 141.4Q259.6 141.4 260.3 141.7Q260.9 142 261.3 142.6Q261.7 143.1 261.9 143.8L260.8 144.1Q260.8 143.6 260.5 143.2Q260.3 142.8 259.9 142.6Q259.4 142.3 258.8 142.3Q258.2 142.3 257.7 142.6Q257.1 142.9 256.8 143.5Q256.5 144 256.5 144.7V144.9Q256.5 145.6 256.8 146.1Q257.1 146.7 257.7 146.9Q258.2 147.2 258.8 147.2Q259.5 147.2 259.9 147Q260.3 146.7 260.6 146.3Q260.8 145.9 260.9 145.5L261.9 145.7Q261.8 146.4 261.4 147Q261 147.5 260.3 147.9Q259.7 148.2 258.8 148.2ZM266.7 148.2Q265.8 148.2 265.1 147.8Q264.3 147.4 263.9 146.7Q263.4 145.9 263.4 144.9V144.7Q263.4 143.6 263.9 142.9Q264.3 142.2 265.1 141.8Q265.8 141.4 266.7 141.4Q267.5 141.4 268.3 141.8Q269 142.2 269.4 142.9Q269.9 143.6 269.9 144.7V144.9Q269.9 145.9 269.4 146.7Q269 147.4 268.3 147.8Q267.5 148.2 266.7 148.2ZM266.7 147.2Q267.3 147.2 267.8 146.9Q268.3 146.6 268.6 146.1Q268.9 145.6 268.9 144.9V144.7Q268.9 144 268.6 143.5Q268.3 142.9 267.8 142.6Q267.3 142.3 266.7 142.3Q266 142.3 265.5 142.6Q265 142.9 264.8 143.5Q264.5 144 264.5 144.7V144.9Q264.5 145.6 264.8 146.1Q265 146.6 265.5 146.9Q266 147.2 266.7 147.2ZM271.3 148V141.6H272.3V142.3H272.4Q272.6 141.8 272.9 141.6Q273.2 141.4 273.7 141.4Q274.2 141.4 274.5 141.6Q274.8 141.9 274.9 142.3H275Q275.5 141.4 276.4 141.4Q277.2 141.4 277.6 141.8Q278 142.3 278 143V148H277V143.4Q277 142.9 276.7 142.6Q276.5 142.3 276.1 142.3Q275.7 142.3 275.4 142.7Q275.1 143 275.1 143.6V148H274.1V143.3Q274.1 142.9 273.9 142.6Q273.6 142.3 273.2 142.3Q272.8 142.3 272.5 142.7Q272.3 143 272.3 143.6V148ZM279.5 150.6V141.6H280.5V142.6H280.7Q281 142 281.6 141.7Q282.2 141.4 282.9 141.4Q283.7 141.4 284.4 141.8Q285 142.1 285.4 142.9Q285.9 143.6 285.9 144.6V144.9Q285.9 146 285.5 146.7Q285.1 147.4 284.4 147.8Q283.7 148.2 282.9 148.2Q282.2 148.2 281.6 147.9Q281 147.6 280.7 147H280.5V150.6ZM282.7 147.2Q283.6 147.2 284.2 146.6Q284.8 146 284.8 144.9V144.6Q284.8 144 284.5 143.4Q284.2 142.9 283.8 142.6Q283.3 142.3 282.7 142.3Q282.1 142.3 281.6 142.6Q281.1 142.9 280.8 143.5Q280.5 144 280.5 144.7V144.9Q280.5 145.6 280.8 146.1Q281.1 146.6 281.6 146.9Q282.1 147.2 282.7 147.2ZM290 148.2Q289 148.2 288.3 147.5Q287.6 146.8 287.6 145.4V141.6H288.6V145.3Q288.6 146.3 289 146.8Q289.4 147.2 290.3 147.2Q291.2 147.2 291.8 146.6Q292.3 146 292.3 144.9V141.6H293.3V148H292.3V146.8H292.1Q291.8 147.5 291.3 147.8Q290.8 148.2 290 148.2ZM298.4 148Q298 148 297.7 147.7Q297.4 147.4 297.4 147V142.5H295.4V141.6H297.4V138.9H298.5V141.6H301V142.5H298.5V146.7Q298.5 147.1 298.8 147.1H300.6V148ZM306.5 148.2Q305.5 148.2 304.8 147.8Q304.1 147.3 303.7 146.6Q303.3 145.8 303.3 144.9V144.5Q303.3 143.6 303.7 142.9Q304.1 142.2 304.9 141.8Q305.6 141.4 306.5 141.4Q307.3 141.4 307.9 141.7Q308.4 141.9 308.8 142.4Q309.2 142.8 309.4 143.3Q309.5 143.8 309.5 144.3V145.1H304.3Q304.4 146 304.9 146.6Q305.5 147.2 306.5 147.2Q307.4 147.2 307.9 146.8Q308.3 146.4 308.5 145.9L309.5 146.2Q309.2 147.1 308.4 147.6Q307.7 148.2 306.5 148.2ZM304.4 144.2H308.5Q308.5 143.6 308.2 143.2Q307.9 142.8 307.5 142.6Q307 142.3 306.5 142.3Q305.6 142.3 305 142.9Q304.5 143.4 304.4 144.2ZM311 148V147.1H312.5V142.5H311.2V141.6H313.5V142.4H313.7Q313.9 141.9 314.4 141.6Q314.8 141.4 315.4 141.4Q316.4 141.4 317 142Q317.6 142.6 317.6 143.9L316.6 144Q316.6 143.1 316.1 142.7Q315.7 142.3 315.1 142.3Q314.3 142.3 313.9 142.9Q313.5 143.5 313.5 144.3V147.1H315.2V148ZM329.3 148 327 141.6H328.2L330.2 147.5H330.4L332.3 141.6H333.5L331.3 148ZM338.3 140.5Q338 140.5 337.7 140.3Q337.4 140 337.4 139.6Q337.4 139.3 337.7 139Q338 138.7 338.3 138.7Q338.7 138.7 339 139Q339.2 139.3 339.2 139.6Q339.2 140 339 140.3Q338.7 140.5 338.3 140.5ZM335.6 148V147.1H337.8V142.5H335.8V141.6H338.8V147.1H341V148ZM346.3 148.2Q345.3 148.2 344.7 147.8Q344 147.5 343.7 147Q343.4 146.4 343.4 145.8L344.3 145.6Q344.4 146.3 344.9 146.8Q345.4 147.2 346.3 147.2Q347 147.2 347.4 147Q347.9 146.7 347.9 146.2Q347.9 145.6 347.4 145.4Q347 145.2 346 145.1Q344.9 145 344.3 144.6Q343.7 144.1 343.7 143.3V143.2Q343.7 142.6 344.1 142.2Q344.4 141.8 344.9 141.6Q345.5 141.4 346.1 141.4Q346.9 141.4 347.5 141.7Q348.1 142 348.4 142.4Q348.6 142.9 348.7 143.4L347.8 143.6Q347.7 143 347.3 142.6Q346.8 142.3 346.1 142.3Q345.6 142.3 345.1 142.5Q344.7 142.7 344.7 143.2Q344.7 143.7 345.1 143.9Q345.5 144.2 346.6 144.3Q347.7 144.3 348.3 144.8Q348.9 145.2 348.9 146.1V146.2Q348.9 147.1 348.2 147.6Q347.5 148.2 346.3 148.2ZM354.2 140.5Q353.9 140.5 353.6 140.3Q353.3 140 353.3 139.6Q353.3 139.3 353.6 139Q353.9 138.7 354.2 138.7Q354.6 138.7 354.9 139Q355.1 139.3 355.1 139.6Q355.1 140 354.9 140.3Q354.6 140.5 354.2 140.5ZM351.5 148V147.1H353.7V142.5H351.7V141.6H354.8V147.1H356.9V148ZM362.1 148.2Q361.3 148.2 360.5 147.8Q359.8 147.4 359.3 146.7Q358.9 145.9 358.9 144.9V144.7Q358.9 143.6 359.3 142.9Q359.8 142.2 360.5 141.8Q361.3 141.4 362.1 141.4Q363 141.4 363.7 141.8Q364.5 142.2 364.9 142.9Q365.4 143.6 365.4 144.7V144.9Q365.4 145.9 364.9 146.7Q364.5 147.4 363.7 147.8Q363 148.2 362.1 148.2ZM362.1 147.2Q362.8 147.2 363.2 146.9Q363.7 146.6 364 146.1Q364.3 145.6 364.3 144.9V144.7Q364.3 144 364 143.5Q363.7 142.9 363.2 142.6Q362.7 142.3 362.1 142.3Q361.5 142.3 361 142.6Q360.5 142.9 360.2 143.5Q359.9 144 359.9 144.7V144.9Q359.9 145.6 360.2 146.1Q360.5 146.6 361 146.9Q361.5 147.2 362.1 147.2ZM367.2 148V141.6H368.3V142.6H368.4Q369 141.4 370.5 141.4Q371.6 141.4 372.3 142.1Q372.9 142.8 372.9 144.2V148H371.9V144.4Q371.9 143.3 371.5 142.8Q371 142.3 370.2 142.3Q369.3 142.3 368.8 143Q368.3 143.6 368.3 144.6V148Z" fill="#0a0a0a"/><path d="M27.9 168.2Q27 168.2 26.3 167.8Q25.6 167.4 25.2 166.7Q24.8 165.9 24.8 164.9V164.7Q24.8 163.6 25.2 162.9Q25.6 162.2 26.3 161.8Q27 161.4 27.8 161.4Q28.5 161.4 29.1 161.7Q29.7 162 30 162.6H30.1V158.9H31.1V168H30.1V167H30Q29.7 167.6 29.1 167.9Q28.4 168.2 27.9 168.2ZM28 167.2Q28.6 167.2 29.1 166.9Q29.6 166.6 29.8 166.1Q30.1 165.6 30.1 164.9V164.7Q30.1 164 29.8 163.5Q29.5 162.9 29.1 162.6Q28.6 162.3 28 162.3Q27.4 162.3 26.9 162.6Q26.4 162.9 26.1 163.4Q25.8 164 25.8 164.7V164.9Q25.8 165.6 26.1 166.1Q26.4 166.6 26.9 166.9Q27.4 167.2 28 167.2ZM36 168.2Q35 168.2 34.3 167.8Q33.6 167.3 33.2 166.6Q32.8 165.8 32.8 164.9V164.5Q32.8 163.6 33.2 162.9Q33.6 162.2 34.4 161.8Q35.1 161.4 36 161.4Q36.8 161.4 37.4 161.7Q37.9 161.9 38.3 162.4Q38.7 162.8 38.9 163.3Q39 163.8 39 164.3V165.1H33.8Q33.9 166 34.4 166.6Q35 167.2 36 167.2Q36.9 167.2 37.4 166.8Q37.8 166.4 38 165.9L39 166.2Q38.7 167.1 37.9 167.6Q37.2 168.2 36 168.2ZM33.9 164.2H38Q38 163.6 37.7 163.2Q37.4 162.8 36.9 162.6Q36.5 162.3 36 162.3Q35.1 162.3 34.5 162.9Q34 163.4 33.9 164.2ZM43.9 168Q43.4 168 43.1 167.7Q42.9 167.4 42.9 167V162.5H40.8V161.6H42.9V158.9H43.9V161.6H46.4V162.5H43.9V166.7Q43.9 167.1 44.2 167.1H46V168ZM51.9 168.2Q50.9 168.2 50.2 167.8Q49.5 167.3 49.1 166.6Q48.7 165.8 48.7 164.9V164.5Q48.7 163.6 49.1 162.9Q49.6 162.2 50.3 161.8Q51 161.4 51.9 161.4Q52.7 161.4 53.3 161.7Q53.8 161.9 54.2 162.4Q54.6 162.8 54.8 163.3Q54.9 163.8 54.9 164.3V165.1H49.7Q49.8 166 50.3 166.6Q50.9 167.2 51.9 167.2Q52.8 167.2 53.3 166.8Q53.7 166.4 53.9 165.9L54.9 166.2Q54.6 167.1 53.9 167.6Q53.1 168.2 51.9 168.2ZM49.8 164.2H53.9Q53.9 163.6 53.6 163.2Q53.3 162.8 52.9 162.6Q52.4 162.3 51.9 162.3Q51 162.3 50.5 162.9Q49.9 163.4 49.8 164.2ZM59.9 168.2Q59 168.2 58.3 167.8Q57.5 167.4 57.1 166.7Q56.6 165.9 56.6 164.9V164.7Q56.6 163.7 57.1 162.9Q57.5 162.2 58.3 161.8Q59 161.4 59.9 161.4Q60.7 161.4 61.4 161.7Q62 162 62.4 162.6Q62.8 163.1 63 163.8L61.9 164.1Q61.9 163.6 61.6 163.2Q61.4 162.8 61 162.6Q60.5 162.3 59.9 162.3Q59.3 162.3 58.8 162.6Q58.2 162.9 57.9 163.5Q57.6 164 57.6 164.7V164.9Q57.6 165.6 57.9 166.1Q58.2 166.7 58.8 166.9Q59.3 167.2 59.9 167.2Q60.6 167.2 61 167Q61.4 166.7 61.7 166.3Q61.9 165.9 62 165.5L63 165.7Q62.9 166.4 62.5 167Q62.1 167.5 61.4 167.9Q60.8 168.2 59.9 168.2ZM67.7 168Q67.3 168 67 167.7Q66.7 167.4 66.7 167V162.5H64.7V161.6H66.7V158.9H67.7V161.6H70.2V162.5H67.7V166.7Q67.7 167.1 68.1 167.1H69.9V168ZM75.8 168.2Q74.8 168.2 74.2 167.8Q73.5 167.5 73.2 167Q72.9 166.4 72.9 165.8L73.8 165.6Q73.9 166.3 74.4 166.8Q74.9 167.2 75.8 167.2Q76.5 167.2 76.9 167Q77.4 166.7 77.4 166.2Q77.4 165.6 76.9 165.4Q76.5 165.2 75.5 165.1Q74.4 165 73.8 164.6Q73.2 164.1 73.2 163.3V163.2Q73.2 162.6 73.6 162.2Q73.9 161.8 74.4 161.6Q75 161.4 75.6 161.4Q76.4 161.4 77 161.7Q77.5 162 77.8 162.4Q78.1 162.9 78.2 163.4L77.2 163.6Q77.2 163 76.8 162.6Q76.3 162.3 75.6 162.3Q75.1 162.3 74.6 162.5Q74.2 162.7 74.2 163.2Q74.2 163.7 74.6 163.9Q75 164.2 76.1 164.3Q77.2 164.3 77.8 164.8Q78.4 165.2 78.4 166.1V166.2Q78.4 167.1 77.7 167.6Q76.9 168.2 75.8 168.2ZM91.3 168.2Q90.4 168.2 89.7 167.8Q89.1 167.4 88.7 166.7Q88.3 165.9 88.3 164.9V164.7Q88.3 163.6 88.7 162.9Q89.1 162.1 89.7 161.8Q90.4 161.4 91.2 161.4Q91.9 161.4 92.5 161.7Q93 162 93.3 162.6H93.5V161.6H94.5V166.7Q94.5 167.1 94.8 167.1H95.1V168H94.5Q94.1 168 93.8 167.7Q93.5 167.5 93.5 166.9H93.3Q93 167.5 92.4 167.9Q91.9 168.2 91.3 168.2ZM91.4 167.2Q92.3 167.2 92.9 166.6Q93.5 165.9 93.5 164.9V164.7Q93.5 164 93.2 163.5Q92.9 162.9 92.4 162.6Q92 162.3 91.4 162.3Q90.8 162.3 90.3 162.6Q89.8 162.9 89.6 163.4Q89.3 164 89.3 164.7V164.9Q89.3 166 89.9 166.6Q90.5 167.2 91.4 167.2ZM96.7 168V161.6H97.7V162.6H97.9Q98.5 161.4 100 161.4Q101.1 161.4 101.8 162.1Q102.4 162.8 102.4 164.2V168H101.4V164.4Q101.4 163.3 101 162.8Q100.5 162.3 99.7 162.3Q98.8 162.3 98.3 163Q97.7 163.6 97.7 164.6V168ZM107.4 168.2Q106.6 168.2 105.9 167.8Q105.2 167.4 104.7 166.7Q104.3 165.9 104.3 164.9V164.7Q104.3 163.6 104.7 162.9Q105.2 162.2 105.9 161.8Q106.6 161.4 107.4 161.4Q108.1 161.4 108.6 161.7Q109.2 162 109.5 162.6H109.7V158.9H110.7V168H109.7V167H109.5Q109.2 167.6 108.6 167.9Q108 168.2 107.4 168.2ZM107.5 167.2Q108.1 167.2 108.6 166.9Q109.1 166.6 109.4 166.1Q109.7 165.6 109.7 164.9V164.7Q109.7 164 109.4 163.5Q109.1 162.9 108.6 162.6Q108.1 162.3 107.5 162.3Q106.9 162.3 106.4 162.6Q105.9 162.9 105.7 163.4Q105.4 164 105.4 164.7V164.9Q105.4 165.6 105.6 166.1Q105.9 166.6 106.4 166.9Q106.9 167.2 107.5 167.2ZM123.5 160.5Q123.2 160.5 122.9 160.3Q122.6 160 122.6 159.6Q122.6 159.3 122.9 159Q123.2 158.7 123.5 158.7Q123.9 158.7 124.2 159Q124.4 159.3 124.4 159.6Q124.4 160 124.2 160.3Q123.9 160.5 123.5 160.5ZM120.8 168V167.1H123V162.5H121V161.6H124V167.1H126.1V168ZM131.3 168.2Q130.4 168.2 129.7 167.8Q129 167.4 128.6 166.7Q128.2 165.9 128.2 164.9V164.7Q128.2 163.6 128.6 162.9Q129 162.2 129.7 161.8Q130.4 161.4 131.3 161.4Q131.9 161.4 132.5 161.7Q133.1 162 133.4 162.6H133.6V158.9H134.6V168H133.6V167H133.4Q133.1 167.6 132.5 167.9Q131.9 168.2 131.3 168.2ZM131.4 167.2Q132 167.2 132.5 166.9Q133 166.6 133.3 166.1Q133.6 165.6 133.6 164.9V164.7Q133.6 164 133.3 163.5Q133 162.9 132.5 162.6Q132 162.3 131.4 162.3Q130.8 162.3 130.3 162.6Q129.8 162.9 129.5 163.4Q129.2 164 129.2 164.7V164.9Q129.2 165.6 129.5 166.1Q129.8 166.6 130.3 166.9Q130.8 167.2 131.4 167.2ZM139.4 168.2Q138.5 168.2 137.8 167.8Q137 167.3 136.6 166.6Q136.2 165.8 136.2 164.9V164.5Q136.2 163.6 136.7 162.9Q137.1 162.2 137.8 161.8Q138.5 161.4 139.4 161.4Q140.2 161.4 140.8 161.7Q141.4 161.9 141.7 162.4Q142.1 162.8 142.3 163.3Q142.5 163.8 142.5 164.3V165.1H137.3Q137.3 166 137.9 166.6Q138.4 167.2 139.4 167.2Q140.3 167.2 140.8 166.8Q141.2 166.4 141.4 165.9L142.4 166.2Q142.1 167.1 141.4 167.6Q140.6 168.2 139.4 168.2ZM137.3 164.2H141.4Q141.4 163.6 141.1 163.2Q140.8 162.8 140.4 162.6Q139.9 162.3 139.4 162.3Q138.6 162.3 138 162.9Q137.4 163.4 137.3 164.2ZM144.5 168V161.6H145.5V162.6H145.6Q146.2 161.4 147.7 161.4Q148.8 161.4 149.5 162.1Q150.2 162.8 150.2 164.2V168H149.2V164.4Q149.2 163.3 148.7 162.8Q148.2 162.3 147.5 162.3Q146.6 162.3 146 163Q145.5 163.6 145.5 164.6V168ZM155.2 168Q154.8 168 154.5 167.7Q154.2 167.4 154.2 167V162.5H152.2V161.6H154.2V158.9H155.2V161.6H157.7V162.5H155.2V166.7Q155.2 167.1 155.6 167.1H157.4V168ZM163.3 160.5Q162.9 160.5 162.7 160.3Q162.4 160 162.4 159.6Q162.4 159.3 162.7 159Q162.9 158.7 163.3 158.7Q163.7 158.7 163.9 159Q164.2 159.3 164.2 159.6Q164.2 160 163.9 160.3Q163.7 160.5 163.3 160.5ZM160.5 168V167.1H162.8V162.5H160.8V161.6H163.8V167.1H165.9V168ZM170.3 168V162.5H168.3V161.6H170.3V159.9Q170.3 159.5 170.5 159.2Q170.8 158.9 171.3 158.9H173.8V159.8H171.6Q171.3 159.8 171.3 160.2V161.6H174V162.5H171.3V168ZM179.2 160.5Q178.8 160.5 178.6 160.3Q178.3 160 178.3 159.6Q178.3 159.3 178.6 159Q178.8 158.7 179.2 158.7Q179.6 158.7 179.9 159Q180.1 159.3 180.1 159.6Q180.1 160 179.9 160.3Q179.6 160.5 179.2 160.5ZM176.5 168V167.1H178.7V162.5H176.7V161.6H179.7V167.1H181.8V168ZM187.1 168.2Q186.2 168.2 185.5 167.8Q184.8 167.3 184.4 166.6Q184 165.8 184 164.9V164.5Q184 163.6 184.4 162.9Q184.8 162.2 185.5 161.8Q186.3 161.4 187.1 161.4Q187.9 161.4 188.5 161.7Q189.1 161.9 189.5 162.4Q189.8 162.8 190 163.3Q190.2 163.8 190.2 164.3V165.1H185Q185 166 185.6 166.6Q186.2 167.2 187.1 167.2Q188.1 167.2 188.5 166.8Q189 166.4 189.2 165.9L190.1 166.2Q189.8 167.1 189.1 167.6Q188.4 168.2 187.1 168.2ZM185 164.2H189.2Q189.2 163.6 188.9 163.2Q188.6 162.8 188.1 162.6Q187.7 162.3 187.1 162.3Q186.3 162.3 185.7 162.9Q185.1 163.4 185 164.2ZM195.2 168.2Q194.2 168.2 193.5 167.8Q192.9 167.5 192.6 167Q192.3 166.4 192.2 165.8L193.2 165.6Q193.2 166.3 193.8 166.8Q194.3 167.2 195.1 167.2Q195.8 167.2 196.3 167Q196.7 166.7 196.7 166.2Q196.7 165.6 196.3 165.4Q195.8 165.2 194.9 165.1Q193.8 165 193.2 164.6Q192.6 164.1 192.6 163.3V163.2Q192.6 162.6 192.9 162.2Q193.2 161.8 193.8 161.6Q194.3 161.4 194.9 161.4Q195.8 161.4 196.3 161.7Q196.9 162 197.2 162.4Q197.5 162.9 197.5 163.4L196.6 163.6Q196.5 163 196.1 162.6Q195.7 162.3 194.9 162.3Q194.4 162.3 194 162.5Q193.5 162.7 193.5 163.2Q193.5 163.7 193.9 163.9Q194.3 164.2 195.4 164.3Q196.5 164.3 197.1 164.8Q197.7 165.2 197.7 166.1V166.2Q197.7 167.1 197 167.6Q196.3 168.2 195.2 168.2ZM210 168V162.5H208.1V161.6H210V159.9Q210 159.5 210.3 159.2Q210.6 158.9 211 158.9H213.6V159.8H211.4Q211.1 159.8 211.1 160.2V161.6H213.7V162.5H211.1V168ZM218.6 168.2Q217.7 168.2 217 167.8Q216.4 167.4 216 166.7Q215.6 165.9 215.6 164.9V164.7Q215.6 163.6 216 162.9Q216.4 162.1 217 161.8Q217.7 161.4 218.5 161.4Q219.2 161.4 219.7 161.7Q220.3 162 220.6 162.6H220.8V161.6H221.8V166.7Q221.8 167.1 222.1 167.1H222.4V168H221.8Q221.4 168 221.1 167.7Q220.8 167.5 220.8 166.9H220.6Q220.3 167.5 219.7 167.9Q219.2 168.2 218.6 168.2ZM218.7 167.2Q219.6 167.2 220.2 166.6Q220.8 165.9 220.8 164.9V164.7Q220.8 164 220.5 163.5Q220.2 162.9 219.7 162.6Q219.3 162.3 218.7 162.3Q218.1 162.3 217.6 162.6Q217.1 162.9 216.9 163.4Q216.6 164 216.6 164.7V164.9Q216.6 166 217.2 166.6Q217.8 167.2 218.7 167.2ZM227 168.2Q226.1 168.2 225.3 167.8Q224.6 167.4 224.1 166.7Q223.7 165.9 223.7 164.9V164.7Q223.7 163.7 224.1 162.9Q224.6 162.2 225.3 161.8Q226.1 161.4 227 161.4Q227.8 161.4 228.5 161.7Q229.1 162 229.5 162.6Q229.9 163.1 230 163.8L229 164.1Q229 163.6 228.7 163.2Q228.5 162.8 228 162.6Q227.6 162.3 227 162.3Q226.3 162.3 225.8 162.6Q225.3 162.9 225 163.5Q224.7 164 224.7 164.7V164.9Q224.7 165.6 225 166.1Q225.3 166.7 225.8 166.9Q226.4 167.2 227 167.2Q227.6 167.2 228.1 167Q228.5 166.7 228.7 166.3Q229 165.9 229 165.5L230.1 165.7Q229.9 166.4 229.5 167Q229.1 167.5 228.5 167.9Q227.8 168.2 227 168.2ZM234.9 168.2Q233.9 168.2 233.2 167.8Q232.5 167.3 232.1 166.6Q231.7 165.8 231.7 164.9V164.5Q231.7 163.6 232.1 162.9Q232.5 162.2 233.3 161.8Q234 161.4 234.9 161.4Q235.7 161.4 236.3 161.7Q236.8 161.9 237.2 162.4Q237.6 162.8 237.8 163.3Q237.9 163.8 237.9 164.3V165.1H232.7Q232.8 166 233.3 166.6Q233.9 167.2 234.9 167.2Q235.8 167.2 236.3 166.8Q236.7 166.4 236.9 165.9L237.8 166.2Q237.6 167.1 236.8 167.6Q236.1 168.2 234.9 168.2ZM232.8 164.2H236.9Q236.9 163.6 236.6 163.2Q236.3 162.8 235.8 162.6Q235.4 162.3 234.9 162.3Q234 162.3 233.4 162.9Q232.9 163.4 232.8 164.2ZM242.9 168.2Q241.9 168.2 241.3 167.8Q240.6 167.5 240.3 167Q240 166.4 240 165.8L240.9 165.6Q241 166.3 241.5 166.8Q242 167.2 242.8 167.2Q243.6 167.2 244 167Q244.4 166.7 244.4 166.2Q244.4 165.6 244 165.4Q243.6 165.2 242.6 165.1Q241.5 165 240.9 164.6Q240.3 164.1 240.3 163.3V163.2Q240.3 162.6 240.6 162.2Q241 161.8 241.5 161.6Q242 161.4 242.6 161.4Q243.5 161.4 244.1 161.7Q244.6 162 244.9 162.4Q245.2 162.9 245.3 163.4L244.3 163.6Q244.3 163 243.8 162.6Q243.4 162.3 242.7 162.3Q242.1 162.3 241.7 162.5Q241.3 162.7 241.3 163.2Q241.3 163.7 241.7 163.9Q242.1 164.2 243.1 164.3Q244.2 164.3 244.8 164.8Q245.4 165.2 245.4 166.1V166.2Q245.4 167.1 244.7 167.6Q244 168.2 242.9 168.2ZM258.7 168.2Q257.8 168.2 257.1 167.8Q256.4 167.4 255.9 166.7Q255.5 165.9 255.5 164.9V164.7Q255.5 163.6 255.9 162.9Q256.4 162.2 257.1 161.8Q257.8 161.4 258.7 161.4Q259.6 161.4 260.3 161.8Q261 162.2 261.5 162.9Q261.9 163.6 261.9 164.7V164.9Q261.9 165.9 261.5 166.7Q261 167.4 260.3 167.8Q259.6 168.2 258.7 168.2ZM258.7 167.2Q259.3 167.2 259.8 166.9Q260.3 166.6 260.6 166.1Q260.9 165.6 260.9 164.9V164.7Q260.9 164 260.6 163.5Q260.3 162.9 259.8 162.6Q259.3 162.3 258.7 162.3Q258.1 162.3 257.6 162.6Q257.1 162.9 256.8 163.5Q256.5 164 256.5 164.7V164.9Q256.5 165.6 256.8 166.1Q257.1 166.6 257.6 166.9Q258.1 167.2 258.7 167.2ZM265.6 168 263.4 161.6H264.6L266.6 167.5H266.7L268.7 161.6H269.9L267.6 168ZM274.6 168.2Q273.7 168.2 273 167.8Q272.3 167.3 271.9 166.6Q271.5 165.8 271.5 164.9V164.5Q271.5 163.6 271.9 162.9Q272.3 162.2 273 161.8Q273.8 161.4 274.7 161.4Q275.5 161.4 276 161.7Q276.6 161.9 277 162.4Q277.4 162.8 277.5 163.3Q277.7 163.8 277.7 164.3V165.1H272.5Q272.5 166 273.1 166.6Q273.7 167.2 274.7 167.2Q275.6 167.2 276 166.8Q276.5 166.4 276.7 165.9L277.6 166.2Q277.4 167.1 276.6 167.6Q275.9 168.2 274.6 168.2ZM272.5 164.2H276.7Q276.7 163.6 276.4 163.2Q276.1 162.8 275.6 162.6Q275.2 162.3 274.7 162.3Q273.8 162.3 273.2 162.9Q272.6 163.4 272.5 164.2ZM279.2 168V167.1H280.7V162.5H279.4V161.6H281.7V162.4H281.9Q282.1 161.9 282.6 161.6Q283 161.4 283.6 161.4Q284.6 161.4 285.2 162Q285.8 162.6 285.8 163.9L284.7 164Q284.7 163.1 284.3 162.7Q283.9 162.3 283.3 162.3Q282.5 162.3 282.1 162.9Q281.7 163.5 281.7 164.3V167.1H283.3V168ZM295.8 168 294.7 161.6H295.8L296.6 167.5H296.8L297.5 161.6H299.4L300.2 167.5H300.3L301.2 161.6H302.2L301.2 168H299.3L298.6 162H298.4L297.6 168ZM306.5 168.2Q305.5 168.2 304.8 167.8Q304.1 167.3 303.7 166.6Q303.3 165.8 303.3 164.9V164.5Q303.3 163.6 303.7 162.9Q304.1 162.2 304.9 161.8Q305.6 161.4 306.5 161.4Q307.3 161.4 307.9 161.7Q308.4 161.9 308.8 162.4Q309.2 162.8 309.4 163.3Q309.5 163.8 309.5 164.3V165.1H304.3Q304.4 166 304.9 166.6Q305.5 167.2 306.5 167.2Q307.4 167.2 307.9 166.8Q308.3 166.4 308.5 165.9L309.5 166.2Q309.2 167.1 308.4 167.6Q307.7 168.2 306.5 168.2ZM304.4 164.2H308.5Q308.5 163.6 308.2 163.2Q307.9 162.8 307.5 162.6Q307 162.3 306.5 162.3Q305.6 162.3 305 162.9Q304.5 163.4 304.4 164.2ZM314.7 168.2Q314.1 168.2 313.4 167.9Q312.8 167.6 312.5 167H312.3V168H311.3V158.9H312.3V162.6H312.5Q312.8 162 313.4 161.7Q314 161.4 314.7 161.4Q315.5 161.4 316.2 161.8Q316.9 162.1 317.3 162.9Q317.7 163.6 317.7 164.6V164.9Q317.7 166 317.3 166.7Q316.9 167.4 316.2 167.8Q315.5 168.2 314.7 168.2ZM314.5 167.2Q315.4 167.2 316 166.6Q316.6 166 316.6 164.9V164.6Q316.6 164 316.4 163.4Q316.1 162.9 315.6 162.6Q315.1 162.3 314.5 162.3Q313.9 162.3 313.4 162.6Q312.9 162.9 312.6 163.5Q312.3 164 312.3 164.7V164.9Q312.3 165.6 312.6 166.1Q312.9 166.6 313.4 166.9Q313.9 167.2 314.5 167.2ZM322.5 168.2Q321.6 168.2 320.8 167.8Q320.1 167.4 319.6 166.7Q319.1 165.9 319.1 164.9V164.7Q319.1 163.7 319.6 162.9Q320.1 162.2 320.8 161.8Q321.6 161.4 322.5 161.4Q323.3 161.4 323.9 161.7Q324.6 162 325 162.6Q325.4 163.1 325.5 163.8L324.5 164.1Q324.4 163.6 324.2 163.2Q323.9 162.8 323.5 162.6Q323.1 162.3 322.4 162.3Q321.8 162.3 321.3 162.6Q320.8 162.9 320.5 163.5Q320.2 164 320.2 164.7V164.9Q320.2 165.6 320.5 166.1Q320.8 166.7 321.3 166.9Q321.8 167.2 322.5 167.2Q323.1 167.2 323.5 167Q324 166.7 324.2 166.3Q324.5 165.9 324.5 165.5L325.5 165.7Q325.4 166.4 325 167Q324.6 167.5 324 167.9Q323.3 168.2 322.5 168.2ZM330 168.2Q329.1 168.2 328.4 167.8Q327.7 167.4 327.3 166.7Q326.9 165.9 326.9 164.9V164.7Q326.9 163.6 327.3 162.9Q327.7 162.1 328.4 161.8Q329.1 161.4 329.9 161.4Q330.6 161.4 331.1 161.7Q331.7 162 332 162.6H332.1V161.6H333.2V166.7Q333.2 167.1 333.5 167.1H333.8V168H333.1Q332.7 168 332.4 167.7Q332.1 167.5 332.1 166.9H332Q331.7 167.5 331.1 167.9Q330.6 168.2 330 168.2ZM330.1 167.2Q331 167.2 331.6 166.6Q332.1 165.9 332.1 164.9V164.7Q332.1 164 331.9 163.5Q331.6 162.9 331.1 162.6Q330.7 162.3 330.1 162.3Q329.5 162.3 329 162.6Q328.5 162.9 328.3 163.4Q328 164 328 164.7V164.9Q328 166 328.6 166.6Q329.1 167.2 330.1 167.2ZM334.9 168V161.6H335.9V162.3H336.1Q336.2 161.8 336.6 161.6Q336.9 161.4 337.3 161.4Q337.8 161.4 338.1 161.6Q338.4 161.9 338.5 162.3H338.7Q339.1 161.4 340.1 161.4Q340.8 161.4 341.2 161.8Q341.6 162.3 341.6 163V168H340.6V163.4Q340.6 162.9 340.4 162.6Q340.2 162.3 339.7 162.3Q339.3 162.3 339 162.7Q338.8 163 338.8 163.6V168H337.8V163.3Q337.8 162.9 337.5 162.6Q337.3 162.3 336.9 162.3Q336.4 162.3 336.2 162.7Q335.9 163 335.9 163.6V168ZM353.8 168.2Q353 168.2 352.3 167.8Q351.6 167.4 351.2 166.7Q350.8 165.9 350.8 164.9V164.7Q350.8 163.6 351.2 162.9Q351.6 162.1 352.3 161.8Q353 161.4 353.8 161.4Q354.5 161.4 355 161.7Q355.5 162 355.9 162.6H356V161.6H357V166.7Q357 167.1 357.4 167.1H357.7V168H357Q356.6 168 356.3 167.7Q356 167.5 356 166.9H355.9Q355.5 167.5 355 167.9Q354.4 168.2 353.8 168.2ZM353.9 167.2Q354.8 167.2 355.4 166.6Q356 165.9 356 164.9V164.7Q356 164 355.7 163.5Q355.5 162.9 355 162.6Q354.5 162.3 353.9 162.3Q353.3 162.3 352.9 162.6Q352.4 162.9 352.1 163.4Q351.8 164 351.8 164.7V164.9Q351.8 166 352.4 166.6Q353 167.2 353.9 167.2ZM359.3 168V161.6H360.3V162.6H360.5Q361.1 161.4 362.5 161.4Q363.7 161.4 364.3 162.1Q365 162.8 365 164.2V168H364V164.4Q364 163.3 363.5 162.8Q363.1 162.3 362.3 162.3Q361.4 162.3 360.8 163Q360.3 163.6 360.3 164.6V168ZM370 168.2Q369.1 168.2 368.4 167.8Q367.7 167.4 367.3 166.7Q366.9 165.9 366.9 164.9V164.7Q366.9 163.6 367.3 162.9Q367.7 162.2 368.4 161.8Q369.1 161.4 369.9 161.4Q370.6 161.4 371.2 161.7Q371.8 162 372.1 162.6H372.2V158.9H373.2V168H372.2V167H372.1Q371.8 167.6 371.2 167.9Q370.6 168.2 370 168.2ZM370.1 167.2Q370.7 167.2 371.2 166.9Q371.7 166.6 371.9 166.1Q372.2 165.6 372.2 164.9V164.7Q372.2 164 371.9 163.5Q371.6 162.9 371.2 162.6Q370.7 162.3 370.1 162.3Q369.5 162.3 369 162.6Q368.5 162.9 368.2 163.4Q367.9 164 367.9 164.7V164.9Q367.9 165.6 368.2 166.1Q368.5 166.6 369 166.9Q369.5 167.2 370.1 167.2Z" fill="#0a0a0a"/><path d="M25.1 188V187.1H27.5V179.8H25.2V178.9H28.5V187.1H30.8V188ZM35.9 188.2Q35.1 188.2 34.3 187.8Q33.6 187.4 33.2 186.7Q32.7 185.9 32.7 184.9V184.7Q32.7 183.6 33.2 182.9Q33.6 182.2 34.3 181.8Q35.1 181.4 35.9 181.4Q36.8 181.4 37.5 181.8Q38.3 182.2 38.7 182.9Q39.2 183.6 39.2 184.7V184.9Q39.2 185.9 38.7 186.7Q38.3 187.4 37.5 187.8Q36.8 188.2 35.9 188.2ZM35.9 187.2Q36.6 187.2 37.1 186.9Q37.5 186.6 37.8 186.1Q38.1 185.6 38.1 184.9V184.7Q38.1 184 37.8 183.5Q37.5 182.9 37 182.6Q36.5 182.3 35.9 182.3Q35.3 182.3 34.8 182.6Q34.3 182.9 34 183.5Q33.7 184 33.7 184.7V184.9Q33.7 185.6 34 186.1Q34.3 186.6 34.8 186.9Q35.3 187.2 35.9 187.2ZM41.8 190.6V189.7H45.6Q45.9 189.7 45.9 189.3V187H45.8Q45.5 187.6 44.9 187.9Q44.4 188.2 43.8 188.2Q42.9 188.2 42.2 187.8Q41.5 187.4 41 186.7Q40.6 185.9 40.6 184.9V184.7Q40.6 183.6 41 182.9Q41.5 182.2 42.2 181.8Q42.9 181.4 43.7 181.4Q44.4 181.4 45 181.7Q45.5 182 45.8 182.6H45.9V181.6H47V189.6Q47 190 46.7 190.3Q46.4 190.6 46 190.6ZM43.8 187.2Q44.4 187.2 44.9 186.9Q45.4 186.6 45.7 186.1Q45.9 185.6 45.9 184.9V184.7Q45.9 184 45.7 183.5Q45.4 182.9 44.9 182.6Q44.4 182.3 43.8 182.3Q43.2 182.3 42.7 182.6Q42.2 182.9 41.9 183.4Q41.6 184 41.6 184.7V184.9Q41.6 185.6 41.9 186.1Q42.2 186.6 42.7 186.9Q43.2 187.2 43.8 187.2ZM51.9 188.2Q50.9 188.2 50.3 187.8Q49.7 187.5 49.4 187Q49.1 186.4 49 185.8L50 185.6Q50 186.3 50.6 186.8Q51.1 187.2 51.9 187.2Q52.6 187.2 53 187Q53.5 186.7 53.5 186.2Q53.5 185.6 53.1 185.4Q52.6 185.2 51.7 185.1Q50.6 185 50 184.6Q49.3 184.1 49.3 183.3V183.2Q49.3 182.6 49.7 182.2Q50 181.8 50.6 181.6Q51.1 181.4 51.7 181.4Q52.5 181.4 53.1 181.7Q53.7 182 54 182.4Q54.3 182.9 54.3 183.4L53.4 183.6Q53.3 183 52.9 182.6Q52.4 182.3 51.7 182.3Q51.2 182.3 50.8 182.5Q50.3 182.7 50.3 183.2Q50.3 183.7 50.7 183.9Q51.1 184.2 52.2 184.3Q53.3 184.3 53.9 184.8Q54.5 185.2 54.5 186.1V186.2Q54.5 187.1 53.8 187.6Q53.1 188.2 51.9 188.2ZM67.8 188.2Q66.9 188.2 66.2 187.8Q65.4 187.3 65 186.6Q64.6 185.8 64.6 184.9V184.5Q64.6 183.6 65.1 182.9Q65.5 182.2 66.2 181.8Q66.9 181.4 67.8 181.4Q68.6 181.4 69.2 181.7Q69.8 181.9 70.1 182.4Q70.5 182.8 70.7 183.3Q70.9 183.8 70.9 184.3V185.1H65.7Q65.7 186 66.3 186.6Q66.8 187.2 67.8 187.2Q68.7 187.2 69.2 186.8Q69.6 186.4 69.8 185.9L70.8 186.2Q70.5 187.1 69.8 187.6Q69 188.2 67.8 188.2ZM65.7 184.2H69.8Q69.8 183.6 69.5 183.2Q69.2 182.8 68.8 182.6Q68.3 182.3 67.8 182.3Q67 182.3 66.4 182.9Q65.8 183.4 65.7 184.2ZM74.7 188 72.5 181.6H73.6L75.6 187.5H75.8L77.8 181.6H79L76.7 188ZM83.7 188.2Q82.8 188.2 82.1 187.8Q81.4 187.3 81 186.6Q80.6 185.8 80.6 184.9V184.5Q80.6 183.6 81 182.9Q81.4 182.2 82.1 181.8Q82.8 181.4 83.7 181.4Q84.5 181.4 85.1 181.7Q85.7 181.9 86 182.4Q86.4 182.8 86.6 183.3Q86.8 183.8 86.8 184.3V185.1H81.6Q81.6 186 82.2 186.6Q82.7 187.2 83.7 187.2Q84.6 187.2 85.1 186.8Q85.6 186.4 85.7 185.9L86.7 186.2Q86.4 187.1 85.7 187.6Q84.9 188.2 83.7 188.2ZM81.6 184.2H85.8Q85.7 183.6 85.4 183.2Q85.1 182.8 84.7 182.6Q84.2 182.3 83.7 182.3Q82.9 182.3 82.3 182.9Q81.7 183.4 81.6 184.2ZM88.3 188V187.1H89.7V182.5H88.4V181.6H90.8V182.4H90.9Q91.2 181.9 91.6 181.6Q92.1 181.4 92.7 181.4Q93.6 181.4 94.2 182Q94.8 182.6 94.9 183.9L93.8 184Q93.8 183.1 93.4 182.7Q92.9 182.3 92.3 182.3Q91.5 182.3 91.1 182.9Q90.8 183.5 90.8 184.3V187.1H92.4V188ZM97.7 190.6V189.7H101.1Q101.4 189.7 101.4 189.3V186.8H101.3Q100.9 187.5 100.4 187.8Q99.9 188.2 99.2 188.2Q98.1 188.2 97.4 187.5Q96.7 186.8 96.7 185.4V181.6H97.7V185.3Q97.7 186.3 98.2 186.8Q98.6 187.2 99.4 187.2Q100.4 187.2 100.9 186.6Q101.4 186 101.4 184.9V181.6H102.4V189.6Q102.4 190 102.1 190.3Q101.9 190.6 101.4 190.6ZM115.5 188Q115 188 114.7 187.7Q114.5 187.4 114.5 187V182.5H112.4V181.6H114.5V178.9H115.5V181.6H118V182.5H115.5V186.7Q115.5 187.1 115.8 187.1H117.7V188ZM123.5 180.5Q123.2 180.5 122.9 180.3Q122.6 180 122.6 179.6Q122.6 179.3 122.9 179Q123.2 178.7 123.5 178.7Q123.9 178.7 124.2 179Q124.4 179.3 124.4 179.6Q124.4 180 124.2 180.3Q123.9 180.5 123.5 180.5ZM120.8 188V187.1H123V182.5H121V181.6H124V187.1H126.1V188ZM128.1 188V181.6H129.1V182.3H129.2Q129.4 181.8 129.7 181.6Q130 181.4 130.5 181.4Q131 181.4 131.3 181.6Q131.6 181.9 131.7 182.3H131.8Q132.3 181.4 133.2 181.4Q134 181.4 134.4 181.8Q134.8 182.3 134.8 183V188H133.7V183.4Q133.7 182.9 133.5 182.6Q133.3 182.3 132.9 182.3Q132.4 182.3 132.2 182.7Q131.9 183 131.9 183.6V188H130.9V183.3Q130.9 182.9 130.7 182.6Q130.4 182.3 130 182.3Q129.6 182.3 129.3 182.7Q129.1 183 129.1 183.6V188ZM139.4 188.2Q138.5 188.2 137.8 187.8Q137 187.3 136.6 186.6Q136.2 185.8 136.2 184.9V184.5Q136.2 183.6 136.7 182.9Q137.1 182.2 137.8 181.8Q138.5 181.4 139.4 181.4Q140.2 181.4 140.8 181.7Q141.4 181.9 141.7 182.4Q142.1 182.8 142.3 183.3Q142.5 183.8 142.5 184.3V185.1H137.3Q137.3 186 137.9 186.6Q138.4 187.2 139.4 187.2Q140.3 187.2 140.8 186.8Q141.2 186.4 141.4 185.9L142.4 186.2Q142.1 187.1 141.4 187.6Q140.6 188.2 139.4 188.2ZM137.3 184.2H141.4Q141.4 183.6 141.1 183.2Q140.8 182.8 140.4 182.6Q139.9 182.3 139.4 182.3Q138.6 182.3 138 182.9Q137.4 183.4 137.3 184.2ZM147.4 188.2Q146.4 188.2 145.8 187.8Q145.1 187.5 144.8 187Q144.5 186.4 144.5 185.8L145.4 185.6Q145.5 186.3 146 186.8Q146.5 187.2 147.4 187.2Q148.1 187.2 148.5 187Q149 186.7 149 186.2Q149 185.6 148.5 185.4Q148.1 185.2 147.1 185.1Q146 185 145.4 184.6Q144.8 184.1 144.8 183.3V183.2Q144.8 182.6 145.2 182.2Q145.5 181.8 146 181.6Q146.6 181.4 147.2 181.4Q148 181.4 148.6 181.7Q149.2 182 149.4 182.4Q149.7 182.9 149.8 183.4L148.9 183.6Q148.8 183 148.4 182.6Q147.9 182.3 147.2 182.3Q146.7 182.3 146.2 182.5Q145.8 182.7 145.8 183.2Q145.8 183.7 146.2 183.9Q146.6 184.2 147.7 184.3Q148.8 184.3 149.4 184.8Q150 185.2 150 186.1V186.2Q150 187.1 149.3 187.6Q148.6 188.2 147.4 188.2ZM155.2 188Q154.8 188 154.5 187.7Q154.2 187.4 154.2 187V182.5H152.2V181.6H154.2V178.9H155.2V181.6H157.7V182.5H155.2V186.7Q155.2 187.1 155.6 187.1H157.4V188ZM162.9 188.2Q162 188.2 161.4 187.8Q160.7 187.4 160.3 186.7Q159.9 185.9 159.9 184.9V184.7Q159.9 183.6 160.3 182.9Q160.7 182.1 161.4 181.8Q162 181.4 162.9 181.4Q163.5 181.4 164.1 181.7Q164.6 182 164.9 182.6H165.1V181.6H166.1V186.7Q166.1 187.1 166.4 187.1H166.8V188H166.1Q165.7 188 165.4 187.7Q165.1 187.5 165.1 186.9H164.9Q164.6 187.5 164 187.9Q163.5 188.2 162.9 188.2ZM163 187.2Q163.9 187.2 164.5 186.6Q165.1 185.9 165.1 184.9V184.7Q165.1 184 164.8 183.5Q164.5 182.9 164 182.6Q163.6 182.3 163 182.3Q162.4 182.3 161.9 182.6Q161.4 182.9 161.2 183.4Q160.9 184 160.9 184.7V184.9Q160.9 186 161.5 186.6Q162.1 187.2 163 187.2ZM167.8 188V181.6H168.8V182.3H169Q169.2 181.8 169.5 181.6Q169.8 181.4 170.3 181.4Q170.7 181.4 171 181.6Q171.3 181.9 171.5 182.3H171.6Q172.1 181.4 173 181.4Q173.7 181.4 174.1 181.8Q174.5 182.3 174.5 183V188H173.5V183.4Q173.5 182.9 173.3 182.6Q173.1 182.3 172.7 182.3Q172.2 182.3 172 182.7Q171.7 183 171.7 183.6V188H170.7V183.3Q170.7 182.9 170.4 182.6Q170.2 182.3 169.8 182.3Q169.4 182.3 169.1 182.7Q168.8 183 168.8 183.6V188ZM176.1 190.6V181.6H177.1V182.6H177.2Q177.6 182 178.2 181.7Q178.8 181.4 179.5 181.4Q180.3 181.4 180.9 181.8Q181.6 182.1 182 182.9Q182.4 183.6 182.4 184.6V184.9Q182.4 186 182 186.7Q181.6 187.4 180.9 187.8Q180.3 188.2 179.4 188.2Q178.8 188.2 178.2 187.9Q177.6 187.6 177.2 187H177.1V190.6ZM179.2 187.2Q180.2 187.2 180.8 186.6Q181.4 186 181.4 184.9V184.6Q181.4 184 181.1 183.4Q180.8 182.9 180.3 182.6Q179.8 182.3 179.2 182.3Q178.6 182.3 178.1 182.6Q177.7 182.9 177.4 183.5Q177.1 184 177.1 184.7V184.9Q177.1 185.6 177.4 186.1Q177.6 186.6 178.1 186.9Q178.6 187.2 179.2 187.2ZM187.1 188.2Q186.7 188.2 186.5 187.9Q186.2 187.6 186.2 187.3Q186.2 186.9 186.5 186.6Q186.7 186.4 187.1 186.4Q187.5 186.4 187.7 186.6Q188 186.9 188 187.3Q188 187.6 187.7 187.9Q187.5 188.2 187.1 188.2Z" fill="#0a0a0a"/><rect x="24.0" y="208" width="62.4" height="24" rx="12" fill="none" stroke="#0a0a0a" stroke-width="1.8"/><path d="M35.8 223.8V216.2H38.8Q39.6 216.2 40.1 216.5Q40.6 216.8 40.9 217.3Q41.2 217.8 41.2 218.4V218.6Q41.2 219.2 40.9 219.7Q40.6 220.3 40.1 220.6Q39.6 220.9 38.8 220.9H37.2V223.8ZM37.2 219.6H38.7Q39.1 219.6 39.4 219.3Q39.7 219 39.7 218.6V218.5Q39.7 218.1 39.4 217.8Q39.1 217.5 38.7 217.5H37.2ZM43.6 226V224.7H46Q46.3 224.7 46.3 224.4V223.1H46.1Q45.7 224 44.5 224Q44 224 43.5 223.8Q43.1 223.5 42.8 223Q42.6 222.6 42.6 221.8V218.4H44V221.5Q44 222.1 44.3 222.4Q44.5 222.8 45.1 222.8Q45.7 222.8 46 222.3Q46.3 221.9 46.3 221.3V218.4H47.7V225.2Q47.7 225.6 47.4 225.8Q47.2 226 46.8 226ZM51.6 223.8Q51.3 223.8 51 223.6Q50.8 223.4 50.8 223V219.7H49.2V218.4H50.8V216.2H52.2V218.4H54.1V219.7H52.2V222.2Q52.2 222.5 52.5 222.5H53.9V223.8ZM56.1 223.8V216.2H57.5V219.3H57.7Q57.9 218.8 58.3 218.5Q58.7 218.2 59.3 218.2Q60.1 218.2 60.6 218.8Q61.2 219.3 61.2 220.4V223.8H59.8V220.7Q59.8 220.2 59.5 219.8Q59.2 219.5 58.7 219.5Q58.1 219.5 57.8 219.9Q57.5 220.3 57.5 221V223.8ZM65.3 224Q64.5 224 63.9 223.7Q63.2 223.3 62.9 222.7Q62.5 222.1 62.5 221.2V221.1Q62.5 220.2 62.9 219.5Q63.2 218.9 63.9 218.6Q64.5 218.2 65.3 218.2Q66 218.2 66.7 218.6Q67.3 218.9 67.7 219.5Q68.1 220.2 68.1 221.1V221.2Q68.1 222.1 67.7 222.7Q67.3 223.3 66.7 223.7Q66 224 65.3 224ZM65.3 222.7Q65.9 222.7 66.3 222.3Q66.7 221.9 66.7 221.2V221Q66.7 220.3 66.3 219.9Q65.9 219.6 65.3 219.6Q64.7 219.6 64.3 219.9Q63.8 220.3 63.8 221V221.2Q63.8 221.9 64.3 222.3Q64.7 222.7 65.3 222.7ZM69.5 223.8V218.4H70.9V219.2H71.1Q71.3 218.7 71.7 218.5Q72.1 218.2 72.7 218.2Q73.2 218.2 73.6 218.5Q74.1 218.7 74.3 219.2Q74.6 219.6 74.6 220.4V223.8H73.2V220.7Q73.2 220.2 72.9 219.8Q72.7 219.5 72.1 219.5Q71.5 219.5 71.2 219.9Q70.9 220.3 70.9 221V223.8Z" fill="#0a0a0a"/><rect x="94.4" y="208" width="123.0" height="24" rx="12" fill="none" stroke="#0a0a0a" stroke-width="1.8"/><path d="M108.8 224Q107.5 224 106.7 223.2Q105.9 222.4 105.9 220.9V219.1Q105.9 217.7 106.7 216.8Q107.5 216 108.8 216Q110.2 216 110.9 216.8Q111.6 217.5 111.6 218.9V219.1H110.1V218.9Q110.1 218.5 110 218.1Q109.9 217.8 109.6 217.5Q109.3 217.3 108.8 217.3Q108.3 217.3 108 217.6Q107.7 217.8 107.5 218.2Q107.4 218.6 107.4 219V221Q107.4 221.7 107.7 222.2Q108 222.7 108.8 222.7Q109.3 222.7 109.6 222.5Q109.9 222.2 110 221.9Q110.1 221.5 110.1 221.1V220.9H111.6V221.1Q111.6 222.5 110.9 223.3Q110.2 224 108.8 224ZM115.5 224Q114.7 224 114.1 223.7Q113.4 223.3 113 222.7Q112.7 222.1 112.7 221.2V221.1Q112.7 220.2 113 219.5Q113.4 218.9 114.1 218.6Q114.7 218.2 115.5 218.2Q116.2 218.2 116.9 218.6Q117.5 218.9 117.9 219.5Q118.3 220.2 118.3 221.1V221.2Q118.3 222.1 117.9 222.7Q117.5 223.3 116.9 223.7Q116.2 224 115.5 224ZM115.5 222.7Q116.1 222.7 116.5 222.3Q116.9 221.9 116.9 221.2V221Q116.9 220.3 116.5 219.9Q116.1 219.6 115.5 219.6Q114.9 219.6 114.5 219.9Q114 220.3 114 221V221.2Q114 221.9 114.5 222.3Q114.9 222.7 115.5 222.7ZM119.3 223.8V218.4H120.6V218.9H120.8Q120.9 218.6 121.1 218.4Q121.4 218.2 121.8 218.2Q122.1 218.2 122.4 218.4Q122.6 218.6 122.7 218.9H122.9Q123 218.6 123.3 218.4Q123.6 218.2 124 218.2Q124.5 218.2 124.9 218.6Q125.2 219 125.2 219.6V223.8H123.8V220Q123.8 219.8 123.7 219.7Q123.6 219.6 123.4 219.6Q123.2 219.6 123 219.7Q122.9 219.8 122.9 220.1V223.8H121.5V220Q121.5 219.8 121.4 219.7Q121.3 219.6 121.1 219.6Q120.9 219.6 120.8 219.7Q120.6 219.8 120.6 220.1V223.8ZM126.2 226V218.4H127.5V219.2H127.7Q128 218.7 128.4 218.5Q128.8 218.2 129.4 218.2Q130.1 218.2 130.6 218.6Q131.2 218.9 131.5 219.5Q131.8 220.1 131.8 221V221.2Q131.8 222.1 131.5 222.7Q131.2 223.4 130.7 223.7Q130.1 224 129.4 224Q128.7 224 128.3 223.7Q127.9 223.4 127.7 223.1H127.5V226ZM129 222.7Q129.6 222.7 130 222.3Q130.5 221.9 130.5 221.2V221.1Q130.5 220.4 130 220Q129.6 219.6 129 219.6Q128.4 219.6 128 220Q127.5 220.4 127.5 221.1V221.2Q127.5 221.9 128 222.3Q128.4 222.7 129 222.7ZM135.1 224Q134.6 224 134.1 223.8Q133.7 223.5 133.4 223Q133.2 222.6 133.2 221.8V218.4H134.6V221.5Q134.6 222.1 134.8 222.4Q135.1 222.8 135.7 222.8Q136.3 222.8 136.6 222.3Q136.9 221.9 136.9 221.3V218.4H138.3V223.8H136.9V223.1H136.7Q136.3 224 135.1 224ZM142.2 223.8Q141.8 223.8 141.6 223.6Q141.4 223.4 141.4 223V219.7H139.8V218.4H141.4V216.2H142.8V218.4H144.7V219.7H142.8V222.2Q142.8 222.5 143.1 222.5H144.5V223.8ZM149.2 224Q148.4 224 147.8 223.7Q147.1 223.3 146.8 222.7Q146.4 222 146.4 221.1V221Q146.4 220.2 146.8 219.6Q147.2 218.9 147.8 218.6Q148.4 218.2 149.2 218.2Q149.9 218.2 150.4 218.5Q150.9 218.7 151.2 219.1Q151.5 219.5 151.7 220Q151.9 220.4 151.9 220.8V221.6H147.9Q147.9 222.1 148.3 222.4Q148.7 222.7 149.2 222.7Q149.7 222.7 150 222.5Q150.3 222.3 150.4 222.1L151.6 222.7Q151.4 223 151.2 223.3Q150.9 223.6 150.4 223.8Q149.9 224 149.2 224ZM147.9 220.4H150.5Q150.4 220 150 219.7Q149.7 219.5 149.2 219.5Q148.7 219.5 148.3 219.8Q148 220 147.9 220.4ZM153 223.8V222.5H154.1V219.7H153.1V218.4H155.4V219.2H155.6Q155.8 218.7 156.1 218.5Q156.5 218.2 157 218.2Q157.8 218.2 158.3 218.8Q158.8 219.3 158.8 220.3V220.5L157.4 220.7V220.5Q157.4 220.1 157.2 219.8Q156.9 219.5 156.5 219.5Q156 219.5 155.8 219.9Q155.5 220.2 155.5 220.8V222.5H156.7V223.8ZM168 223.8 166.2 216.2H167.7L169.2 223.1H169.4L171 216.2H172.4L170.7 223.8ZM176.2 217.8Q175.8 217.8 175.5 217.5Q175.2 217.2 175.2 216.8Q175.2 216.3 175.5 216Q175.8 215.7 176.2 215.7Q176.6 215.7 176.9 216Q177.2 216.3 177.2 216.8Q177.2 217.2 176.9 217.5Q176.6 217.8 176.2 217.8ZM173.7 223.8V222.5H175.5V219.7H173.8V218.4H176.9V222.5H178.5V223.8ZM182.9 224Q182.1 224 181.6 223.7Q181 223.5 180.8 223.1Q180.5 222.7 180.4 222.3L181.7 221.9Q181.8 222.2 182.1 222.5Q182.4 222.8 182.9 222.8Q183.5 222.8 183.7 222.6Q183.8 222.4 183.8 222.2Q183.8 222 183.6 221.9Q183.4 221.7 182.7 221.6Q181.8 221.6 181.2 221.2Q180.7 220.7 180.7 220V219.9Q180.7 219.4 181 219Q181.3 218.6 181.7 218.4Q182.2 218.2 182.7 218.2Q183.4 218.2 183.9 218.5Q184.3 218.7 184.6 219Q184.9 219.3 185 219.6L183.7 220.1Q183.6 219.8 183.4 219.7Q183.1 219.5 182.7 219.5Q182.4 219.5 182.2 219.6Q182 219.7 182 219.9Q182 220.2 182.3 220.3Q182.6 220.4 183.3 220.5Q184.2 220.6 184.7 221Q185.2 221.4 185.2 222.2V222.2Q185.2 223 184.6 223.5Q184 224 182.9 224ZM189.7 217.8Q189.2 217.8 188.9 217.5Q188.6 217.2 188.6 216.8Q188.6 216.3 188.9 216Q189.2 215.7 189.7 215.7Q190.1 215.7 190.4 216Q190.7 216.3 190.7 216.8Q190.7 217.2 190.4 217.5Q190.1 217.8 189.7 217.8ZM187.1 223.8V222.5H189V219.7H187.3V218.4H190.4V222.5H192V223.8ZM196.3 224Q195.5 224 194.9 223.7Q194.2 223.3 193.8 222.7Q193.4 222.1 193.4 221.2V221.1Q193.4 220.2 193.8 219.5Q194.2 218.9 194.9 218.6Q195.5 218.2 196.3 218.2Q197 218.2 197.7 218.6Q198.3 218.9 198.7 219.5Q199.1 220.2 199.1 221.1V221.2Q199.1 222.1 198.7 222.7Q198.3 223.3 197.7 223.7Q197 224 196.3 224ZM196.3 222.7Q196.9 222.7 197.3 222.3Q197.7 221.9 197.7 221.2V221Q197.7 220.3 197.3 219.9Q196.9 219.6 196.3 219.6Q195.7 219.6 195.2 219.9Q194.8 220.3 194.8 221V221.2Q194.8 221.9 195.2 222.3Q195.7 222.7 196.3 222.7ZM200.5 223.8V218.4H201.9V219.2H202.1Q202.3 218.7 202.7 218.5Q203.1 218.2 203.7 218.2Q204.2 218.2 204.6 218.5Q205.1 218.7 205.3 219.2Q205.6 219.6 205.6 220.4V223.8H204.2V220.7Q204.2 220.2 203.9 219.8Q203.6 219.5 203.1 219.5Q202.5 219.5 202.2 219.9Q201.9 220.3 201.9 221V223.8Z" fill="#0a0a0a"/><rect x="225.4" y="208" width="109.5" height="24" rx="12" fill="none" stroke="#0a0a0a" stroke-width="1.8"/><path d="M239.8 224Q238.4 224 237.7 223.2Q236.9 222.4 236.9 220.9V219.1Q236.9 217.7 237.7 216.8Q238.4 216 239.8 216Q241.1 216 241.9 216.8Q242.6 217.5 242.6 218.9V219.1H241.1V218.9Q241.1 218.5 241 218.1Q240.9 217.8 240.6 217.5Q240.3 217.3 239.8 217.3Q239.3 217.3 239 217.6Q238.6 217.8 238.5 218.2Q238.4 218.6 238.4 219V221Q238.4 221.7 238.7 222.2Q239 222.7 239.8 222.7Q240.3 222.7 240.6 222.5Q240.9 222.2 241 221.9Q241.1 221.5 241.1 221.1V220.9H242.6V221.1Q242.6 222.5 241.9 223.3Q241.1 224 239.8 224ZM245.9 224Q245.4 224 244.9 223.8Q244.5 223.5 244.2 223Q244 222.6 244 221.8V218.4H245.3V221.5Q245.3 222.1 245.6 222.4Q245.9 222.8 246.4 222.8Q247.1 222.8 247.4 222.3Q247.7 221.9 247.7 221.3V218.4H249V223.8H247.7V223.1H247.5Q247.1 224 245.9 224ZM253.3 224Q252.5 224 252 223.7Q251.4 223.5 251.2 223.1Q250.9 222.7 250.8 222.3L252.1 221.9Q252.2 222.2 252.5 222.5Q252.8 222.8 253.3 222.8Q253.9 222.8 254 222.6Q254.2 222.4 254.2 222.2Q254.2 222 254 221.9Q253.8 221.7 253.1 221.6Q252.2 221.6 251.6 221.2Q251.1 220.7 251.1 220V219.9Q251.1 219.4 251.4 219Q251.7 218.6 252.1 218.4Q252.6 218.2 253.1 218.2Q253.8 218.2 254.3 218.5Q254.7 218.7 255 219Q255.2 219.3 255.4 219.6L254.1 220.1Q254 219.8 253.8 219.7Q253.5 219.5 253.1 219.5Q252.8 219.5 252.6 219.6Q252.4 219.7 252.4 219.9Q252.4 220.2 252.7 220.3Q253 220.4 253.7 220.5Q254.5 220.6 255.1 221Q255.6 221.4 255.6 222.2V222.2Q255.6 223 255 223.5Q254.4 224 253.3 224ZM259.7 223.8Q259.4 223.8 259.1 223.6Q258.9 223.4 258.9 223V219.7H257.3V218.4H258.9V216.2H260.3V218.4H262.2V219.7H260.3V222.2Q260.3 222.5 260.6 222.5H262V223.8ZM266.7 224Q265.9 224 265.3 223.7Q264.6 223.3 264.2 222.7Q263.8 222.1 263.8 221.2V221.1Q263.8 220.2 264.2 219.5Q264.6 218.9 265.3 218.6Q265.9 218.2 266.7 218.2Q267.4 218.2 268.1 218.6Q268.7 218.9 269.1 219.5Q269.5 220.2 269.5 221.1V221.2Q269.5 222.1 269.1 222.7Q268.7 223.3 268.1 223.7Q267.4 224 266.7 224ZM266.7 222.7Q267.3 222.7 267.7 222.3Q268.1 221.9 268.1 221.2V221Q268.1 220.3 267.7 219.9Q267.3 219.6 266.7 219.6Q266.1 219.6 265.6 219.9Q265.2 220.3 265.2 221V221.2Q265.2 221.9 265.6 222.3Q266.1 222.7 266.7 222.7ZM270.4 223.8V218.4H271.8V218.9H272Q272.1 218.6 272.3 218.4Q272.6 218.2 272.9 218.2Q273.3 218.2 273.6 218.4Q273.8 218.6 273.9 218.9H274.1Q274.2 218.6 274.5 218.4Q274.8 218.2 275.2 218.2Q275.7 218.2 276 218.6Q276.4 219 276.4 219.6V223.8H275V220Q275 219.8 274.9 219.7Q274.8 219.6 274.6 219.6Q274.4 219.6 274.2 219.7Q274.1 219.8 274.1 220.1V223.8H272.7V220Q272.7 219.8 272.6 219.7Q272.5 219.6 272.3 219.6Q272.1 219.6 271.9 219.7Q271.8 219.8 271.8 220.1V223.8ZM279.4 223.8V217.5H277.4V216.2H282.9V217.5H280.9V223.8ZM284.8 223.8V216.2H286.2V220.4H286.4L287.9 218.4H289.4V218.5L287.7 221V221.2L289.6 223.8V223.8H288L286.4 221.7H286.2V223.8ZM293.7 217.8Q293.3 217.8 293 217.5Q292.7 217.2 292.7 216.8Q292.7 216.3 293 216Q293.3 215.7 293.7 215.7Q294.1 215.7 294.5 216Q294.8 216.3 294.8 216.8Q294.8 217.2 294.5 217.5Q294.1 217.8 293.7 217.8ZM291.2 223.8V222.5H293V219.7H291.3V218.4H294.4V222.5H296V223.8ZM297.8 223.8V218.4H299.2V219.2H299.4Q299.6 218.7 300 218.5Q300.4 218.2 301 218.2Q301.5 218.2 301.9 218.5Q302.4 218.7 302.6 219.2Q302.9 219.6 302.9 220.4V223.8H301.5V220.7Q301.5 220.2 301.2 219.8Q301 219.5 300.4 219.5Q299.8 219.5 299.5 219.9Q299.2 220.3 299.2 221V223.8ZM306.9 223.8Q306.5 223.8 306.2 223.6Q306 223.4 306 223V219.7H304.4V218.4H306V216.2H307.4V218.4H309.4V219.7H307.4V222.2Q307.4 222.5 307.7 222.5H309.2V223.8ZM313.8 224Q313 224 312.4 223.7Q311.8 223.3 311.4 222.7Q311.1 222 311.1 221.1V221Q311.1 220.2 311.4 219.6Q311.8 218.9 312.4 218.6Q313.1 218.2 313.8 218.2Q314.5 218.2 315 218.5Q315.5 218.7 315.9 219.1Q316.2 219.5 316.3 220Q316.5 220.4 316.5 220.8V221.6H312.5Q312.5 222.1 312.9 222.4Q313.3 222.7 313.8 222.7Q314.3 222.7 314.6 222.5Q314.9 222.3 315 222.1L316.2 222.7Q316.1 223 315.8 223.3Q315.5 223.6 315 223.8Q314.6 224 313.8 224ZM312.5 220.4H315.1Q315 220 314.7 219.7Q314.3 219.5 313.8 219.5Q313.3 219.5 313 219.8Q312.6 220 312.5 220.4ZM317.6 223.8V222.5H318.7V219.7H317.7V218.4H320.1V219.2H320.3Q320.4 218.7 320.8 218.5Q321.2 218.2 321.7 218.2Q322.5 218.2 323 218.8Q323.5 219.3 323.5 220.3V220.5L322 220.7V220.5Q322 220.1 321.8 219.8Q321.6 219.5 321.1 219.5Q320.7 219.5 320.4 219.9Q320.1 220.2 320.1 220.8V222.5H321.4V223.8Z" fill="#0a0a0a"/><g class="nudge"><path d="M25.9 267.7V266.2H30V267.7ZM33.2 268.9V267.3L37.6 266.1V265.9L33.2 264.7V263.1L38.7 264.6V267.4ZM49.8 273.2V271.6H53.1Q53.5 271.6 53.5 271.2V269.6H53.2Q53.1 270 52.6 270.4Q52.2 270.7 51.2 270.7Q50.4 270.7 49.8 270.3Q49.2 270 48.8 269.2Q48.4 268.5 48.4 267.4V267.2Q48.4 266.2 48.8 265.4Q49.2 264.7 49.9 264.3Q50.5 263.9 51.3 263.9Q52.1 263.9 52.5 264.2Q53 264.5 53.2 265H53.5V264.1H55.1V272.1Q55.1 272.6 54.8 272.9Q54.6 273.2 54.1 273.2ZM51.8 269.2Q52.5 269.2 53 268.7Q53.5 268.2 53.5 267.4V267.2Q53.5 266.5 53 266Q52.5 265.5 51.8 265.5Q51 265.5 50.5 266Q50.1 266.4 50.1 267.2V267.4Q50.1 268.2 50.5 268.7Q51 269.2 51.8 269.2ZM59.9 263.4Q59.4 263.4 59.1 263.1Q58.7 262.7 58.7 262.2Q58.7 261.7 59.1 261.3Q59.4 261 59.9 261Q60.5 261 60.8 261.3Q61.2 261.7 61.2 262.2Q61.2 262.7 60.8 263.1Q60.5 263.4 59.9 263.4ZM57 270.6V269H59.1V265.7H57.1V264.1H60.8V269H62.6V270.6ZM67.5 270.6Q67.1 270.6 66.8 270.3Q66.5 270 66.5 269.5V265.7H64.6V264.1H66.5V261.4H68.2V264.1H70.5V265.7H68.2V268.6Q68.2 269 68.5 269H70.3V270.6ZM72.8 270.6V261.4H74.4V265.1H74.6Q74.9 264.6 75.4 264.2Q75.9 263.9 76.6 263.9Q77.5 263.9 78.2 264.5Q78.8 265.2 78.8 266.5V270.6H77.1V266.9Q77.1 266.2 76.8 265.8Q76.5 265.4 75.9 265.4Q75.1 265.4 74.8 265.9Q74.4 266.4 74.4 267.2V270.6ZM83 270.7Q82.4 270.7 81.8 270.5Q81.3 270.2 81 269.6Q80.7 269 80.7 268.1V264.1H82.3V267.8Q82.3 268.5 82.7 268.9Q83 269.2 83.6 269.2Q84.4 269.2 84.7 268.8Q85.1 268.3 85.1 267.5V264.1H86.7V270.6H85.1V269.6H84.8Q84.4 270.7 83 270.7ZM92.3 270.7Q91.4 270.7 90.9 270.4Q90.5 270 90.3 269.6H90V270.6H88.4V261.4H90V265H90.3Q90.5 264.5 91 264.2Q91.5 263.9 92.3 263.9Q93 263.9 93.7 264.3Q94.3 264.7 94.7 265.4Q95.1 266.2 95.1 267.2V267.4Q95.1 268.5 94.7 269.2Q94.3 270 93.7 270.3Q93.1 270.7 92.3 270.7ZM91.7 269.2Q92.5 269.2 93 268.7Q93.5 268.2 93.5 267.4V267.2Q93.5 266.4 93 266Q92.5 265.5 91.7 265.5Q91 265.5 90.5 266Q90 266.5 90 267.2V267.4Q90 268.2 90.5 268.7Q91 269.2 91.7 269.2ZM99.6 270.7Q99.1 270.7 98.7 270.4Q98.3 270 98.3 269.5Q98.3 269 98.7 268.6Q99.1 268.3 99.6 268.3Q100.1 268.3 100.5 268.6Q100.8 269 100.8 269.5Q100.8 270 100.5 270.4Q100.1 270.7 99.6 270.7ZM107.6 270.7Q106.7 270.7 105.9 270.3Q105.1 270 104.7 269.2Q104.2 268.5 104.2 267.5V267.3Q104.2 266.3 104.7 265.5Q105.1 264.7 105.9 264.3Q106.7 263.9 107.6 263.9Q109 263.9 109.8 264.6Q110.7 265.3 110.9 266.5L109.3 266.9Q109.2 266.3 108.8 265.9Q108.3 265.5 107.6 265.5Q106.9 265.5 106.4 266Q105.9 266.5 105.9 267.3V267.4Q105.9 268.3 106.4 268.7Q106.9 269.2 107.6 269.2Q108.3 269.2 108.7 268.8Q109.1 268.4 109.3 267.8L110.9 268.2Q110.7 269.3 109.8 270Q109 270.7 107.6 270.7ZM115.5 270.7Q114.6 270.7 113.8 270.3Q113.1 270 112.6 269.2Q112.1 268.5 112.1 267.4V267.2Q112.1 266.2 112.6 265.4Q113.1 264.7 113.8 264.3Q114.6 263.9 115.5 263.9Q116.4 263.9 117.1 264.3Q117.9 264.7 118.4 265.4Q118.8 266.2 118.8 267.2V267.4Q118.8 268.5 118.4 269.2Q117.9 270 117.1 270.3Q116.4 270.7 115.5 270.7ZM115.5 269.2Q116.2 269.2 116.7 268.7Q117.2 268.2 117.2 267.5V267.2Q117.2 266.4 116.7 265.9Q116.2 265.5 115.5 265.5Q114.8 265.5 114.3 265.9Q113.8 266.4 113.8 267.2V267.5Q113.8 268.2 114.3 268.7Q114.8 269.2 115.5 269.2ZM119.9 270.6V264.1H121.6V264.7H121.8Q121.9 264.4 122.2 264.1Q122.5 263.9 122.9 263.9Q123.3 263.9 123.6 264.1Q123.9 264.4 124 264.7H124.3Q124.4 264.4 124.7 264.1Q125 263.9 125.5 263.9Q126.2 263.9 126.6 264.4Q127 264.8 127 265.6V270.6H125.3V266Q125.3 265.8 125.2 265.6Q125 265.5 124.8 265.5Q124.6 265.5 124.4 265.6Q124.3 265.8 124.3 266.1V270.6H122.6V266Q122.6 265.8 122.5 265.6Q122.3 265.5 122.1 265.5Q121.9 265.5 121.7 265.6Q121.6 265.8 121.6 266.1V270.6ZM130.2 272.2 128.7 271.7 132.6 259.8 134.1 260.3ZM138.8 270.7Q138 270.7 137.3 270.3Q136.7 270 136.3 269.2Q135.9 268.5 135.9 267.4V267.2Q135.9 266.2 136.3 265.5Q136.7 264.7 137.3 264.3Q137.9 263.9 138.7 263.9Q139.4 263.9 139.8 264.2Q140.2 264.4 140.5 264.9H140.7V264.1H142.3V268.6Q142.3 269 142.7 269H142.9V270.6H141.8Q141.4 270.6 141.1 270.3Q140.8 270 140.8 269.6H140.6Q140.3 270.2 139.8 270.5Q139.4 270.7 138.8 270.7ZM139.1 269.2Q139.8 269.2 140.3 268.7Q140.7 268.2 140.7 267.4V267.2Q140.7 266.4 140.3 266Q139.8 265.5 139.1 265.5Q138.4 265.5 138 266Q137.5 266.4 137.5 267.2V267.4Q137.5 268.2 138 268.7Q138.4 269.2 139.1 269.2ZM145.5 273.2V271.6H148.4Q148.7 271.6 148.7 271.2V269.6H148.5Q148.1 270.7 146.6 270.7Q146 270.7 145.5 270.5Q145 270.2 144.7 269.6Q144.4 269 144.4 268.1V264.1H146V267.8Q146 268.5 146.3 268.9Q146.7 269.2 147.3 269.2Q148 269.2 148.4 268.8Q148.7 268.3 148.7 267.5V264.1H150.4V272.1Q150.4 272.6 150.1 272.9Q149.8 273.2 149.4 273.2ZM152.1 270.6 153.7 267.4V267.1L152.1 264.1H154L155.2 266.5H155.4L156.6 264.1H158.4L156.8 267.1V267.4L158.5 270.6H156.6L155.4 268H155.2L153.9 270.6ZM160.3 270.6V264.1H161.9V265.1H162.1Q162.4 264.5 162.9 264.2Q163.3 263.9 164 263.9Q164.6 263.9 165.1 264.2Q165.7 264.5 166 265Q166.3 265.6 166.3 266.5V270.6H164.6V266.9Q164.6 266.2 164.3 265.8Q164 265.4 163.3 265.4Q162.6 265.4 162.3 265.9Q161.9 266.4 161.9 267.2V270.6ZM171.2 270.7Q169.6 270.7 168.7 269.8Q167.8 268.8 167.8 267V265Q167.8 263.2 168.7 262.2Q169.6 261.3 171.2 261.3Q172.7 261.3 173.6 262.2Q174.5 263.2 174.5 265V267Q174.5 268.8 173.6 269.8Q172.7 270.7 171.2 270.7ZM171.2 269.2Q172.1 269.2 172.5 268.6Q172.8 268 172.8 267.1V264.9Q172.8 264.3 172.7 263.8Q172.5 263.4 172.1 263.1Q171.8 262.8 171.2 262.8Q170.6 262.8 170.2 263.1Q169.9 263.4 169.7 263.8Q169.5 264.3 169.5 264.9V267.1Q169.5 268 169.9 268.6Q170.2 269.2 171.2 269.2ZM171.2 267.1Q170.7 267.1 170.4 266.8Q170.1 266.4 170.1 266Q170.1 265.6 170.4 265.2Q170.7 264.9 171.2 264.9Q171.6 264.9 172 265.2Q172.3 265.6 172.3 266Q172.3 266.4 172 266.8Q171.6 267.1 171.2 267.1ZM176.6 270.6V270.2Q176.6 269.8 176.7 269.5Q176.8 269.3 177 269Q177.1 268.7 177.4 268.3L180.8 263.3V263.1H175.9V261.4H182.3V264.1L179.1 268.9Q178.8 269.3 178.6 269.6Q178.5 269.9 178.5 270.2V270.6ZM185.9 272.2 184.4 271.7 188.3 259.8 189.8 260.3ZM192.2 270.6V261.4H198V263.1H193.9V265.2H198V266.8H193.9V270.6ZM202.4 270.7Q201.6 270.7 201 270.3Q200.3 270 199.9 269.2Q199.6 268.5 199.6 267.4V267.2Q199.6 266.2 199.9 265.5Q200.3 264.7 200.9 264.3Q201.6 263.9 202.3 263.9Q203 263.9 203.4 264.2Q203.9 264.4 204.1 264.9H204.3V264.1H206V268.6Q206 269 206.3 269H206.6V270.6H205.5Q205 270.6 204.7 270.3Q204.5 270 204.5 269.6H204.2Q204 270.2 203.5 270.5Q203 270.7 202.4 270.7ZM202.8 269.2Q203.5 269.2 203.9 268.7Q204.3 268.2 204.3 267.4V267.2Q204.3 266.4 203.9 266Q203.5 265.5 202.8 265.5Q202 265.5 201.6 266Q201.2 266.4 201.2 267.2V267.4Q201.2 268.2 201.6 268.7Q202 269.2 202.8 269.2ZM211 270.7Q210.1 270.7 209.3 270.3Q208.6 270 208.1 269.2Q207.7 268.5 207.7 267.5V267.3Q207.7 266.3 208.1 265.5Q208.6 264.7 209.3 264.3Q210.1 263.9 211 263.9Q212.4 263.9 213.2 264.6Q214.1 265.3 214.3 266.5L212.7 266.9Q212.6 266.3 212.2 265.9Q211.8 265.5 211 265.5Q210.3 265.5 209.8 266Q209.3 266.5 209.3 267.3V267.4Q209.3 268.3 209.8 268.7Q210.3 269.2 211 269.2Q211.8 269.2 212.2 268.8Q212.6 268.4 212.7 267.8L214.3 268.2Q214.1 269.3 213.3 270Q212.4 270.7 211 270.7ZM219 270.7Q218 270.7 217.3 270.3Q216.5 269.9 216.1 269.1Q215.7 268.4 215.7 267.3V267.2Q215.7 266.2 216.2 265.5Q216.6 264.8 217.3 264.3Q218.1 263.9 219 263.9Q219.8 263.9 220.4 264.2Q221 264.5 221.4 264.9Q221.8 265.4 221.9 265.9Q222.1 266.5 222.1 267V267.9H217.4Q217.4 268.4 217.9 268.8Q218.3 269.2 219 269.2Q219.6 269.2 219.9 269Q220.2 268.7 220.4 268.4L221.8 269.2Q221.6 269.5 221.3 269.9Q221 270.3 220.4 270.5Q219.8 270.7 219 270.7ZM217.4 266.5H220.5Q220.4 266 220 265.7Q219.6 265.4 218.9 265.4Q218.3 265.4 217.9 265.7Q217.5 266 217.4 266.5ZM223.1 270.6 225.3 261.4H228.5L230.7 270.6H228.9L228.4 268.6H225.3L224.9 270.6ZM225.7 267H228L227 262.3H226.8ZM234.6 270.6Q234.2 270.6 233.9 270.3Q233.6 270 233.6 269.5V265.7H231.7V264.1H233.6V261.4H235.2V264.1H237.6V265.7H235.2V268.6Q235.2 269 235.6 269H237.3V270.6ZM242.6 270.6Q242.1 270.6 241.8 270.3Q241.6 270 241.6 269.5V265.7H239.6V264.1H241.6V261.4H243.2V264.1H245.5V265.7H243.2V268.6Q243.2 269 243.5 269H245.3V270.6ZM250.8 270.7Q249.8 270.7 249.1 270.3Q248.4 269.9 248 269.1Q247.5 268.4 247.5 267.3V267.2Q247.5 266.2 248 265.5Q248.4 264.8 249.2 264.3Q249.9 263.9 250.8 263.9Q251.6 263.9 252.2 264.2Q252.8 264.5 253.2 264.9Q253.6 265.4 253.8 265.9Q254 266.5 254 267V267.9H249.2Q249.3 268.4 249.7 268.8Q250.2 269.2 250.8 269.2Q251.4 269.2 251.7 269Q252.1 268.7 252.2 268.4L253.6 269.2Q253.4 269.5 253.1 269.9Q252.8 270.3 252.2 270.5Q251.7 270.7 250.8 270.7ZM249.3 266.5H252.3Q252.2 266 251.8 265.7Q251.4 265.4 250.8 265.4Q250.2 265.4 249.8 265.7Q249.4 266 249.3 266.5ZM255.7 270.6V264.1H257.4V265.1H257.6Q257.8 264.5 258.3 264.2Q258.8 263.9 259.5 263.9Q260.1 263.9 260.6 264.2Q261.1 264.5 261.4 265Q261.7 265.6 261.7 266.5V270.6H260.1V266.9Q260.1 266.2 259.8 265.8Q259.4 265.4 258.8 265.4Q258.1 265.4 257.7 265.9Q257.4 266.4 257.4 267.2V270.6ZM266.1 270.7Q265.3 270.7 264.6 270.3Q264 270 263.6 269.2Q263.3 268.5 263.3 267.4V267.2Q263.3 266.2 263.6 265.4Q264 264.7 264.7 264.3Q265.4 263.9 266.1 263.9Q266.9 263.9 267.4 264.2Q267.8 264.5 268.1 265H268.3V261.4H270V270.6H268.3V269.6H268.1Q267.9 270 267.4 270.4Q267 270.7 266.1 270.7ZM266.6 269.2Q267.4 269.2 267.8 268.7Q268.3 268.2 268.3 267.4V267.2Q268.3 266.5 267.8 266Q267.4 265.5 266.6 265.5Q265.9 265.5 265.4 266Q264.9 266.4 264.9 267.2V267.4Q264.9 268.2 265.4 268.7Q265.9 269.2 266.6 269.2ZM272.6 267.7V266.2H276.6V267.7ZM282.7 270.7Q281.5 270.7 280.7 270.3Q279.9 269.9 279.5 269.1Q279.1 268.4 279.1 267.4V267H280.8V267.3Q280.8 268.1 281.3 268.6Q281.7 269.1 282.7 269.1Q283.5 269.1 283.9 268.8Q284.3 268.4 284.3 268Q284.3 267.7 284.1 267.4Q284 267.2 283.6 267Q283.2 266.8 282.5 266.7Q281.6 266.5 280.9 266.2Q280.2 265.9 279.8 265.4Q279.4 264.8 279.4 263.9V263.9Q279.4 263.1 279.8 262.5Q280.2 261.9 280.9 261.6Q281.6 261.3 282.5 261.3Q283.6 261.3 284.3 261.7Q285.1 262 285.5 262.7Q285.8 263.3 285.8 264.1V264.5H284.1V264.2Q284.1 263.7 283.7 263.3Q283.3 262.9 282.5 262.9Q281.9 262.9 281.5 263.1Q281.1 263.4 281.1 263.9Q281.1 264.3 281.5 264.6Q281.9 264.9 283.1 265.1Q284.5 265.4 285.2 266Q286 266.6 286 267.8V267.9Q286 269.2 285.1 270Q284.2 270.7 282.7 270.7ZM288.7 273.2V271.6H291.6Q291.9 271.6 291.9 271.2V269.6H291.7Q291.3 270.7 289.8 270.7Q289.2 270.7 288.7 270.5Q288.2 270.2 287.9 269.6Q287.6 269 287.6 268.1V264.1H289.2V267.8Q289.2 268.5 289.5 268.9Q289.9 269.2 290.5 269.2Q291.2 269.2 291.6 268.8Q291.9 268.3 291.9 267.5V264.1H293.6V272.1Q293.6 272.6 293.3 272.9Q293 273.2 292.6 273.2ZM298.6 270.7Q297.6 270.7 297 270.4Q296.4 270.1 296.1 269.6Q295.8 269.1 295.7 268.7L297.2 268.2Q297.3 268.6 297.6 268.9Q298 269.2 298.6 269.2Q299.2 269.2 299.5 269.1Q299.7 268.9 299.7 268.7Q299.7 268.4 299.4 268.2Q299.2 268 298.3 267.9Q297.3 267.8 296.6 267.4Q296 266.9 296 266V265.9Q296 265.3 296.3 264.8Q296.7 264.4 297.2 264.1Q297.8 263.9 298.4 263.9Q299.2 263.9 299.8 264.2Q300.3 264.4 300.6 264.8Q300.9 265.2 301 265.6L299.5 266.2Q299.4 265.8 299.1 265.6Q298.9 265.4 298.4 265.4Q298 265.4 297.8 265.6Q297.6 265.7 297.6 265.9Q297.6 266.2 297.9 266.4Q298.2 266.5 299.1 266.6Q300.1 266.7 300.7 267.2Q301.3 267.7 301.3 268.5V268.6Q301.3 269.6 300.6 270.2Q299.9 270.7 298.6 270.7ZM306.2 270.6Q305.8 270.6 305.5 270.3Q305.2 270 305.2 269.5V265.7H303.3V264.1H305.2V261.4H306.8V264.1H309.2V265.7H306.8V268.6Q306.8 269 307.2 269H308.9V270.6ZM314.5 270.7Q313.5 270.7 312.8 270.3Q312 269.9 311.6 269.1Q311.2 268.4 311.2 267.3V267.2Q311.2 266.2 311.6 265.5Q312.1 264.8 312.8 264.3Q313.5 263.9 314.4 263.9Q315.3 263.9 315.9 264.2Q316.5 264.5 316.8 264.9Q317.2 265.4 317.4 265.9Q317.6 266.5 317.6 267V267.9H312.9Q312.9 268.4 313.4 268.8Q313.8 269.2 314.4 269.2Q315 269.2 315.4 269Q315.7 268.7 315.8 268.4L317.2 269.2Q317.1 269.5 316.8 269.9Q316.4 270.3 315.9 270.5Q315.3 270.7 314.5 270.7ZM312.9 266.5H315.9Q315.9 266 315.5 265.7Q315 265.4 314.4 265.4Q313.8 265.4 313.4 265.7Q313 266 312.9 266.5ZM318.8 270.6V264.1H320.5V264.7H320.7Q320.8 264.4 321.1 264.1Q321.4 263.9 321.8 263.9Q322.2 263.9 322.5 264.1Q322.8 264.4 322.9 264.7H323.2Q323.3 264.4 323.6 264.1Q323.9 263.9 324.4 263.9Q325.1 263.9 325.5 264.4Q325.9 264.8 325.9 265.6V270.6H324.2V266Q324.2 265.8 324.1 265.6Q323.9 265.5 323.7 265.5Q323.5 265.5 323.3 265.6Q323.2 265.8 323.2 266.1V270.6H321.5V266Q321.5 265.8 321.4 265.6Q321.2 265.5 321 265.5Q320.8 265.5 320.6 265.6Q320.5 265.8 320.5 266.1V270.6Z" fill="#66bcbe"/></g><path d="M363.5 274.8Q361.4 274.8 360.4 273.5Q359.3 272.3 359.3 269.9V261.7Q359.3 259.5 360.3 258.4Q361.4 257.2 363.5 257.2Q365.6 257.2 366.7 258.4Q367.7 259.5 367.7 261.7V269.9Q367.7 272.3 366.6 273.5Q365.6 274.8 363.5 274.8ZM363.5 271.6Q364.3 271.6 364.3 270.1V261.7Q364.3 260.4 363.5 260.4Q362.7 260.4 362.7 261.7V270.1Q362.7 270.9 362.9 271.2Q363.1 271.6 363.5 271.6ZM369.1 274.6V257.4H373.7Q375.1 257.4 375.9 258Q376.8 258.7 377.1 259.8Q377.5 261 377.5 262.6Q377.5 264.2 377.2 265.4Q376.9 266.5 376.1 267.2Q375.3 267.8 373.9 267.8H372.5V274.6ZM372.5 264.7H372.7Q373.7 264.7 373.9 264.2Q374.1 263.6 374.1 262.6Q374.1 261.6 373.9 261.1Q373.7 260.5 372.9 260.5H372.5ZM378.6 274.6V257.4H385.4V260.7H382.1V264.1H385.3V267.3H382.1V271.2H385.7V274.6ZM386.8 274.6V257.4H390.3L391.9 265.6V257.4H395.2V274.6H391.9L390.2 266V274.6Z" fill="#66bcbe"/><g transform="translate(330 52)" fill="none" stroke="#0a0a0a" stroke-width="2.4"><path d="M0 14V0H14M50 0H64V14M0 50V64H14M50 64H64V50"/><circle cx="32" cy="29" r="14"/><path d="M26 34Q32 39 38 34M17 52Q32 42 47 52"/><circle cx="27" cy="26" r="1.6" fill="#0a0a0a"/><circle cx="37" cy="26" r="1.6" fill="#0a0a0a"/><rect class="scan" x="4" y="0" width="56" height="2.5" fill="#0a0a0a" stroke="none"/></g>
</svg>
