<svg xmlns="http://www.w3.org/2000/svg" width="240" height="68" viewBox="0 0 240 68" role="img" aria-label="PROJECTS">
<style>@keyframes bob{50%{transform:translateY(3px)}}.bob{animation:bob 1.6s ease-in-out infinite}@media (prefers-reduced-motion: reduce){*{animation:none!important}}</style>
<rect width="240" height="68" rx="14" fill="#66bcbe"/><rect x="8" y="8" width="54" height="52" rx="10" fill="#0a0a0a"/><path d="M28.1 46.2Q25 46.2 23.4 44.5Q21.7 42.8 21.7 39.6V28.8Q21.7 25.4 23.3 23.6Q24.9 21.8 28.1 21.8Q31.3 21.8 32.9 23.6Q34.5 25.4 34.5 28.8V39.6Q34.5 42.8 32.8 44.5Q31.1 46.2 28.1 46.2ZM28.1 41.8Q28.6 41.8 29 41.3Q29.3 40.8 29.3 40.2V28.3Q29.3 27.5 29.1 26.8Q28.9 26.2 28.1 26.2Q27.3 26.2 27.1 26.8Q26.9 27.5 26.9 28.3V40.2Q26.9 40.8 27.2 41.3Q27.5 41.8 28.1 41.8ZM35.8 46V44.9Q35.8 43.1 36.4 41.7Q37 40.2 37.8 39Q38.7 37.8 39.7 36.6Q40.6 35.5 41.5 34.3Q42.3 33 42.9 31.6Q43.4 30.2 43.4 28.4Q43.4 27.6 43.2 27Q42.9 26.4 42.1 26.4Q40.9 26.4 40.9 28.5V31.5H35.8Q35.8 31.2 35.8 30.8Q35.8 30.4 35.8 30Q35.8 27.4 36.3 25.6Q36.9 23.8 38.3 22.8Q39.7 21.9 42.2 21.9Q45.2 21.9 46.8 23.6Q48.5 25.2 48.5 28.4Q48.5 30.5 47.9 32.1Q47.4 33.7 46.5 35Q45.6 36.3 44.5 37.6Q43.8 38.5 43 39.4Q42.3 40.4 41.8 41.5H48.3V46Z" fill="#66bcbe"/><path d="M77.1 46.9V21.1H84Q86.1 21.1 87.3 22.1Q88.6 23 89.1 24.8Q89.7 26.5 89.7 29Q89.7 31.3 89.2 33Q88.8 34.8 87.6 35.7Q86.4 36.7 84.3 36.7H82.2V46.9ZM82.2 32.1H82.5Q83.9 32.1 84.3 31.2Q84.6 30.4 84.6 28.9Q84.6 27.4 84.3 26.6Q84 25.8 82.8 25.8H82.2ZM91.3 46.9V21.1H99.2Q101.2 21.1 102.2 22Q103.2 22.9 103.6 24.5Q103.9 26.1 103.9 28.3Q103.9 30.4 103.4 31.7Q102.8 33 101.4 33.4Q102.6 33.7 103.1 34.7Q103.6 35.6 103.6 37.1V46.9H98.5V36.8Q98.5 35.7 98 35.4Q97.5 35.1 96.5 35.1V46.9ZM96.6 30.7H97.8Q98.9 30.7 98.9 28.3Q98.9 26.8 98.6 26.4Q98.4 25.9 97.8 25.9H96.6ZM111.8 47.1Q108.7 47.1 107 45.3Q105.4 43.4 105.4 39.9V27.6Q105.4 24.3 107 22.6Q108.6 20.9 111.8 20.9Q114.9 20.9 116.5 22.6Q118.1 24.3 118.1 27.6V39.9Q118.1 43.4 116.5 45.3Q114.8 47.1 111.8 47.1ZM111.8 42.4Q113 42.4 113 40.1V27.5Q113 25.6 111.8 25.6Q110.5 25.6 110.5 27.6V40.1Q110.5 41.3 110.8 41.9Q111.1 42.4 111.8 42.4ZM125.9 47.1Q124.2 47.1 122.7 46.5Q121.3 45.8 120.5 44.5Q119.6 43.1 119.6 41.2V34.7H124.7V40.9Q124.7 41.6 125 42Q125.2 42.4 125.8 42.4Q127 42.4 127 41V21.1H132.2V40.4Q132.2 42.5 131.4 44Q130.6 45.5 129.2 46.3Q127.8 47.1 125.9 47.1ZM134.2 46.9V21.1H144.5V26.1H139.4V31.1H144.3V36H139.4V41.9H144.8V46.9ZM152.5 47.1Q149.7 47.1 148 45.4Q146.3 43.6 146.3 40.5V28.6Q146.3 24.9 147.8 22.9Q149.3 20.9 152.7 20.9Q154.5 20.9 155.9 21.5Q157.3 22.2 158.2 23.6Q159 24.9 159 26.9V31.4H153.9V27.6Q153.9 26.4 153.6 26Q153.3 25.6 152.7 25.6Q151.9 25.6 151.7 26.1Q151.4 26.7 151.4 27.5V40.4Q151.4 41.5 151.8 41.9Q152.1 42.4 152.7 42.4Q153.3 42.4 153.6 41.8Q153.9 41.3 153.9 40.4V35.8H159V40.7Q159 44.1 157.3 45.6Q155.6 47.1 152.5 47.1ZM163 46.9V26.1H159.9V21.1H171.2V26.1H168.1V46.9ZM178.7 47.1Q175.2 47.1 173.7 45.4Q172.1 43.6 172.1 39.8V37.3H177.2V40.5Q177.2 41.4 177.5 41.9Q177.7 42.4 178.4 42.4Q179.1 42.4 179.4 42Q179.7 41.6 179.7 40.6Q179.7 39.4 179.4 38.6Q179.2 37.8 178.6 37.1Q178 36.4 177 35.4L174.7 33.2Q172.1 30.8 172.1 27.6Q172.1 24.3 173.6 22.6Q175.2 20.9 178.1 20.9Q181.6 20.9 183.1 22.8Q184.6 24.7 184.6 28.5H179.3V26.7Q179.3 26.2 179 25.9Q178.7 25.6 178.2 25.6Q177.6 25.6 177.3 26Q177 26.3 177 26.9Q177 27.4 177.3 28Q177.6 28.7 178.5 29.5L181.5 32.3Q182.3 33.2 183.1 34.1Q183.8 35.1 184.3 36.3Q184.8 37.6 184.8 39.4Q184.8 43 183.4 45.1Q182.1 47.1 178.7 47.1Z" fill="#0a0a0a"/><path class="bob" d="M210 25v18m-7-7l7 7 7-7" fill="none" stroke="#0a0a0a" stroke-width="3" stroke-linecap="round" stroke-linejoin="round"/>
</svg>
